<svg width="365" height="60" viewBox="0 0 365 60" fill="none" xmlns="http://www.w3.org/2000/svg">
<g filter="url(#filter0_di_1_7)">
<path d="M18.8555 52V5.98H21.1955V52H18.8555ZM23.5355 52V5.98H25.8755V52H23.5355ZM28.2155 52V5.98H35.2355V52H28.2155ZM37.5755 52V5.98H39.9155V52H37.5755ZM46.9355 52V5.98H53.9555V52H46.9355ZM56.332 52V5.98H63.352V52H56.332ZM65.692 52V5.98H68.032V52H65.692ZM70.372 52V5.98H72.712V52H70.372ZM79.732 52V5.98H82.072V52H79.732ZM84.412 52V5.98H91.432V52H84.412ZM93.8086 52V5.98H96.1486V52H93.8086ZM98.4886 52V5.98H105.509V52H98.4886ZM107.849 52V5.98H114.869V52H107.849ZM121.889 52V5.98H124.229V52H121.889ZM126.569 52V5.98H128.909V52H126.569ZM131.285 52V5.98H138.305V52H131.285ZM140.645 52V5.98H142.985V52H140.645ZM145.325 52V5.98H147.665V52H145.325ZM154.685 52V5.98H157.025V52H154.685ZM159.365 52V5.98H166.385V52H159.365ZM168.762 52V5.98H171.102V52H168.762ZM173.442 52V5.98H180.462V52H173.442ZM182.802 52V5.98H185.142V52H182.802ZM187.482 52V5.98H194.502V52H187.482ZM201.522 52V5.98H203.862V52H201.522ZM206.238 52V5.98H208.578V52H206.238ZM215.598 52V5.98H217.938V52H215.598ZM220.278 52V5.98H222.618V52H220.278ZM224.958 52V5.98H231.978V52H224.958ZM234.318 52V5.98H241.338V52H234.318ZM243.715 52V5.98H246.055V52H243.715ZM248.395 52V5.98H255.415V52H248.395ZM257.755 52V5.98H264.775V52H257.755ZM267.115 52V5.98H269.455V52H267.115ZM276.475 52V5.98H278.815V52H276.475ZM281.191 52V5.98H288.211V52H281.191ZM290.551 52V5.98H292.891V52H290.551ZM295.231 52V5.98H297.571V52H295.231ZM299.911 52V5.98H306.931V52H299.911ZM313.951 52V5.98H316.291V52H313.951ZM318.668 52V5.98H325.688V52H318.668ZM328.028 52V5.98H330.368V52H328.028ZM332.708 52V5.98H339.728V52H332.708ZM342.068 52V5.98H344.408V52H342.068ZM351.428 52V5.98H353.768V52H351.428Z" fill="#047481"/>
<g filter="url(#filter1_d_1_7)">
<path d="M35.409 23.3V21.5H36.009V22.7H36.909V20.3H35.409V18.2H36.909V12.2H39.009V15.5H38.409V12.8H37.509V18.8H36.009V19.7H37.509V23.3H35.409ZM41.409 15.8V13.7H43.209V14.3H42.009V15.2H45.909V14.3H44.409V12.8H40.509V14H39.909V12.2H45.009V13.7H46.509V15.8H41.409ZM56.409 20.3V18.8H54.909V16.7H56.409V15.8H54.909V13.7H56.409V12.5H57.009V14.3H55.509V15.2H57.009V17.3H55.509V18.2H57.009V19.7H57.909V15.2H60.009V16.7H60.909V12.8H58.509V13.7H59.709V14.3H57.909V12.2H61.509V17.3H59.409V15.8H58.509V20.3H56.409ZM62.709 12.8V12.2H64.209V12.8H62.709ZM62.709 17.3V16.7H65.409V14.3H63.009V15.2H64.209V15.8H62.409V13.7H66.009V17.3H62.709ZM35.409 17V14H36.009V17H35.409ZM39.909 18.8V15.5H40.509V18.2H41.709V18.8H39.909ZM41.709 17.3V16.7H44.709V17.3H41.709ZM39.909 23.3V21.8H38.409V19.7H42.009V21.2H42.909V18.2H45.909V16.7H48.009V18.2H49.209V18.8H47.409V17.3H46.509V18.8H43.509V21.8H41.409V20.3H39.009V21.2H40.509V22.7H43.209V23.3H39.909ZM38.409 18.5V17H39.009V18.5H38.409ZM60.909 20.3V18.8H60.009V20H59.409V18.2H61.509V19.7H62.409V18.2H64.509V19.7H65.409V18.5H66.009V20.3H63.909V18.8H63.009V20.3H60.909ZM41.409 44.3V42.8H39.909V39.8H38.709V39.2H40.509V42.2H42.009V43.7H42.909V42.2H45.009V43.7H45.909V39.8H44.409V37.7H45.909V36.8H44.409V34.7H45.909V27.2H47.409V23.3H44.409V19.7H49.509V21.8H46.209V21.2H48.909V20.3H45.009V22.7H48.009V27.8H46.509V35.3H45.009V36.2H46.509V38.3H45.009V39.2H46.509V44.3H44.409V42.8H43.509V44.3H41.409ZM54.909 24.8V20H55.509V24.2H56.709V24.8H54.909ZM62.409 39.8V37.7H64.209V38.3H63.009V39.2H65.409V32.3H64.509V33.8H62.409V30.8H60.009V31.7H61.509V34.7H64.509V36.8H59.409V33.8H57.909V30.8H56.409V27.8H54.909V25.7H60.009V27.8H58.509V28.7H64.509V30.2H65.409V27.8H63.909V25.7H65.409V21.8H61.509V22.7H63.009V24.8H57.909V22.7H59.709V23.3H58.509V24.2H62.409V23.3H60.909V21.2H66.009V26.3H64.509V27.2H66.009V30.8H63.909V29.3H57.909V27.2H59.409V26.3H55.509V27.2H57.009V30.2H58.509V33.2H60.009V36.2H63.909V35.3H60.909V32.3H59.409V30.2H63.009V33.2H63.909V31.7H66.009V39.8H62.409ZM56.409 23V21.2H59.709V21.8H57.009V23H56.409ZM47.709 35.3V34.7H50.409V33.8H47.409V31.7H48.909V30.2H50.409V29.3H48.909V27.2H50.409V25.7H51.909V23.3H51.009V24.8H48.909V23H49.509V24.2H50.409V22.7H52.509V26.3H51.009V27.8H49.509V28.7H51.009V30.8H49.509V32.3H48.009V33.2H51.009V35.3H47.709ZM63.909 24.5V23H64.509V24.5H63.909ZM38.409 24.8V23H39.009V24.2H41.709V24.8H38.409ZM44.409 26.3V24.8H43.509V26H42.909V24.2H45.009V25.7H45.909V24.5H46.509V26.3H44.409ZM35.409 30.8V27.2H39.909V26.3H35.409V24.2H37.209V24.8H36.009V25.7H40.509V27.8H36.009V30.2H38.409V29.3H37.209V28.7H39.009V30.8H35.409ZM60.909 27.8V25.7H62.709V26.3H61.509V27.2H62.709V27.8H60.909ZM52.209 27.8V27.2H53.409V26H54.009V27.8H52.209ZM44.409 29V27.8H41.409V26H42.009V27.2H45.009V29H44.409ZM41.409 33.8V28.7H43.209V29.3H42.009V33.2H44.409V30.8H43.509V32H42.909V30.2H45.009V33.8H41.409ZM50.709 32.3V31.7H54.909V29.3H52.509V30.2H53.709V30.8H51.909V28.7H55.509V32.3H50.709ZM39.909 30.5V29H40.509V30.5H39.909ZM47.409 30.5V29H48.009V30.5H47.409ZM41.409 41.3V39.2H42.909V36.8H40.509V38.3H38.409V36.8H36.909V35.3H35.409V33.2H36.909V32.3H35.709V31.7H37.509V33.8H36.009V34.7H37.509V36.2H39.009V37.7H39.909V36.2H43.509V39.8H42.009V40.7H44.709V41.3H41.409ZM39.909 35.3V33.8H38.409V32H39.009V33.2H40.509V34.7H43.209V35.3H39.909ZM55.209 33.8V33.2H56.409V32H57.009V33.8H55.209ZM51.909 35V33.5H52.509V35H51.909ZM54.909 38.3V36.2H57.909V35.3H53.409V33.5H54.009V34.7H58.509V36.8H55.509V37.7H61.209V38.3H54.909ZM56.409 47.3V45.8H55.509V47H54.909V45.2H57.009V46.7H59.409V45.8H57.909V42.2H60.009V43.7H62.409V42.8H60.909V39.8H55.509V41.3H53.409V39.8H51.909V36.8H49.509V37.7H51.009V39.5H50.409V38.3H48.909V36.2H52.509V39.2H54.009V40.7H54.909V39.2H61.509V42.2H63.009V44.3H59.409V42.8H58.509V45.2H60.009V47.3H56.409ZM53.409 38V36.5H54.009V38H53.409ZM35.709 39.8V39.2H36.909V38.3H35.409V36.5H36.009V37.7H37.509V39.8H35.709ZM36.909 42.8V41.3H36.009V42.5H35.409V40.7H37.509V42.2H38.409V41H39.009V42.8H36.909ZM54.909 44.3V42.8H54.009V44H53.409V42.2H55.509V43.7H56.409V40.7H59.709V41.3H57.009V44.3H54.909ZM62.709 41.3V40.7H65.709V41.3H62.709ZM51.909 42.5V41H52.509V42.5H51.909ZM60.909 47.3V45.2H62.709V45.8H61.509V46.7H63.909V42.2H66.009V47H65.409V42.8H64.509V47.3H60.909ZM38.409 47.3V44.3H37.509V45.8H35.409V44H36.009V45.2H36.909V43.7H39.009V46.7H39.909V45.2H43.509V46.7H44.409V45.2H46.209V45.8H45.009V47.3H42.909V45.8H40.509V47.3H38.409ZM35.709 47.3V46.7H37.209V47.3H35.709ZM71.1707 41.3V39.2H74.7707V40.7H75.6707V38.3H72.6707V34.7H74.7707V36.2H75.6707V34.7H77.1707V31.7H80.1707V30.2H81.6707V25.7H83.1707V24.2H84.6707V18.8H83.1707V17.3H81.6707V15.2H84.6707V12.2H86.7707V13.7H89.1707V12.2H92.4707V12.8H89.7707V14.3H86.1707V12.8H85.2707V15.8H82.2707V16.7H83.7707V18.2H85.2707V24.8H83.7707V26.3H82.2707V30.8H80.7707V32.3H77.7707V35.3H76.2707V36.8H74.1707V35.3H73.2707V37.7H76.2707V41.3H74.1707V39.8H71.7707V40.7H72.9707V41.3H71.1707ZM81.6707 14.3V12.2H83.4707V12.8H82.2707V13.7H83.4707V14.3H81.6707ZM95.1707 15.5V14.3H93.6707V12.5H94.2707V13.7H95.7707V15.5H95.1707ZM84.6707 29.3V27.2H86.1707V22.7H87.6707V21.8H86.1707V19.7H89.1707V15.2H90.6707V13.7H92.4707V14.3H91.2707V15.8H89.7707V20.3H86.7707V21.2H88.2707V23.3H86.7707V27.8H85.2707V28.7H86.4707V29.3H84.6707ZM74.1707 32.3V30.5H74.7707V31.7H75.6707V30.2H77.1707V27.8H75.6707V25.7H80.1707V22.7H83.1707V21.8H80.1707V14H80.7707V21.2H83.7707V23.3H80.7707V26.3H76.2707V27.2H77.7707V30.8H76.2707V32.3H74.1707ZM90.6707 18.8V16.7H92.1707V15.2H93.9707V15.8H92.7707V17.3H91.2707V18.2H93.6707V16.7H96.9707V17.3H94.2707V18.8H90.6707ZM86.1707 18.8V15.5H86.7707V18.2H87.6707V15.5H88.2707V18.8H86.1707ZM98.1707 33.5V32.3H96.6707V28.7H99.6707V26.3H98.1707V24.8H97.2707V27.8H95.7707V30.8H93.6707V27.8H92.1707V21.2H95.1707V18.2H97.2707V21.2H98.7707V23.3H95.7707V24.8H94.2707V25.7H95.4707V26.3H93.6707V24.2H95.1707V22.7H98.1707V21.8H96.6707V18.8H95.7707V21.8H92.7707V27.2H94.2707V30.2H95.1707V27.2H96.6707V24.2H98.7707V25.7H100.271V29.3H97.2707V31.7H98.7707V33.5H98.1707ZM81.6707 20.3V18.5H82.2707V19.7H83.4707V20.3H81.6707ZM77.1707 24.8V22.7H78.6707V18.5H79.2707V23.3H77.7707V24.2H78.9707V24.8H77.1707ZM90.9707 20.3V19.7H93.9707V20.3H90.9707ZM89.1707 23.3V21.2H90.9707V21.8H89.7707V22.7H90.9707V23.3H89.1707ZM90.6707 32.3V30.5H91.2707V31.7H92.1707V29.3H90.6707V24.8H89.4707V24.2H91.2707V28.7H92.7707V32.3H90.6707ZM89.1707 29V26H89.7707V29H89.1707ZM78.6707 29.3V27.2H80.4707V27.8H79.2707V28.7H80.4707V29.3H78.6707ZM83.1707 30.8V27.5H83.7707V30.2H86.4707V30.8H83.1707ZM99.6707 33.8V31.7H101.171V30.8H98.4707V30.2H101.771V32.3H100.271V33.2H101.471V33.8H99.6707ZM78.6707 35V33.2H81.6707V31.7H83.4707V32.3H82.2707V33.8H79.2707V35H78.6707ZM95.1707 33.5V32.3H93.9707V31.7H95.7707V33.5H95.1707ZM84.6707 35V32H85.2707V35H84.6707ZM74.4707 33.8V33.2H75.9707V33.8H74.4707ZM87.6707 42.8V37.7H89.1707V33.8H88.2707V36.5H87.6707V33.2H89.7707V38.3H88.2707V42.2H90.6707V41.3H89.1707V39.2H90.6707V36.2H92.1707V35.3H90.6707V33.2H94.2707V34.7H95.7707V39.2H97.2707V40.7H98.1707V36.8H97.2707V38H96.6707V36.2H98.7707V41.3H96.6707V39.8H95.1707V35.3H93.6707V33.8H91.2707V34.7H92.7707V36.8H91.2707V39.8H89.7707V40.7H91.2707V42.8H87.6707ZM99.6707 38.3V36.5H100.271V37.7H101.171V35.3H96.6707V33.5H97.2707V34.7H101.771V38.3H99.6707ZM69.6707 47.3V43.7H71.1707V42.2H77.1707V40.7H79.2707V45.2H81.6707V39.2H83.1707V38.3H77.1707V36.2H80.1707V34.7H83.7707V36.2H86.1707V35H86.7707V36.8H83.1707V35.3H80.7707V36.8H77.7707V37.7H83.7707V39.8H82.2707V45.8H78.6707V41.3H77.7707V42.8H71.7707V44.3H70.2707V46.7H71.1707V45.2H72.6707V43.7H74.7707V45.2H77.7707V47.3H72.9707V46.7H77.1707V45.8H74.1707V44.3H73.2707V45.8H71.7707V47.3H69.6707ZM102.671 41V35H103.271V41H102.671ZM92.1707 39.8V37.7H93.6707V36.5H94.2707V38.3H92.7707V39.2H93.9707V39.8H92.1707ZM84.6707 42.8V41H85.2707V42.2H86.1707V38.3H85.2707V39.5H84.6707V37.7H86.7707V42.8H84.6707ZM77.4707 39.8V39.2H78.9707V39.8H77.4707ZM98.4707 47.3V46.7H99.6707V39.5H100.271V47.3H98.4707ZM101.171 41V39.5H101.771V41H101.171ZM104.171 41V39.5H104.771V41H104.171ZM80.1707 44V39.5H80.7707V44H80.1707ZM93.9707 41.3V40.7H95.4707V41.3H93.9707ZM83.1707 42.5V41H83.7707V42.5H83.1707ZM93.6707 44V42.8H92.1707V41H92.7707V42.2H94.2707V44H93.6707ZM95.4707 42.8V42.2H96.9707V42.8H95.4707ZM104.171 47.3V45.8H101.471V45.2H104.771V46.7H105.671V42.8H101.771V43.7H104.471V44.3H101.171V42.2H106.271V47.3H104.171ZM75.9707 44.3V43.7H77.4707V44.3H75.9707ZM95.1707 47.3V43.7H98.7707V45.5H98.1707V44.3H95.7707V46.7H96.6707V45.5H97.2707V47.3H95.1707ZM78.9707 47.3V46.7H80.4707V47.3H78.9707ZM101.471 47.3V46.7H102.971V47.3H101.471ZM110.165 30.8V24.2H111.665V21.8H110.165V19.7H111.665V15.8H110.165V13.7H113.765V18.2H114.665V16.7H116.165V13.7H117.665V12.2H120.965V12.8H118.265V14.3H116.765V17.3H115.265V18.8H113.165V14.3H110.765V15.2H112.265V20.3H110.765V21.2H112.265V24.8H110.765V30.2H113.165V29.3H111.665V27.2H113.165V24.5H113.765V27.8H112.265V28.7H113.765V30.8H110.165ZM111.965 12.8V12.2H116.465V12.8H111.965ZM114.665 33.8V30.2H116.165V29.3H114.665V23.3H113.165V19.7H116.165V18.2H119.165V17.3H117.665V15.2H122.765V16.7H126.665V15.2H128.165V13.7H132.665V12.8H122.765V14.3H119.465V13.7H122.165V12.2H133.265V14.3H128.765V15.8H127.265V17.3H122.165V15.8H118.265V16.7H119.765V18.8H116.765V20.3H113.765V22.7H115.265V28.7H116.765V30.8H115.265V33.2H116.165V31.7H120.665V26.3H119.765V27.8H118.265V30.2H119.165V29H119.765V30.8H117.665V27.2H119.165V25.7H121.265V32.3H116.765V33.8H114.665ZM134.465 12.8V12.2H135.965V12.8H134.465ZM123.665 15.8V14H124.265V15.2H125.165V13.7H126.965V14.3H125.765V15.8H123.665ZM135.665 21.8V19.7H137.165V14.3H134.765V15.8H130.265V16.7H131.465V17.3H129.665V15.2H134.165V13.7H137.765V20.3H136.265V21.2H137.465V21.8H135.665ZM114.665 15.5V14H115.265V15.5H114.665ZM132.965 17.3V16.7H134.465V17.3H132.965ZM131.465 20.3V19.7H134.165V18.2H135.665V17H136.265V18.8H134.765V20.3H131.465ZM110.165 18.5V17H110.765V18.5H110.165ZM116.165 26.3V24.5H116.765V25.7H117.665V19.7H119.765V22.7H128.165V21.2H129.665V20.3H128.165V18.8H125.765V20.3H123.665V18.8H122.765V21.8H120.665V17H121.265V21.2H122.165V18.2H124.265V19.7H125.165V18.2H128.765V19.7H130.265V21.8H128.765V23.3H119.165V20.3H118.265V26.3H116.165ZM129.965 18.8V18.2H132.965V18.8H129.965ZM123.965 21.8V21.2H126.665V20H127.265V21.8H123.965ZM129.965 23.3V22.7H131.165V21.2H134.765V23.3H132.965V22.7H134.165V21.8H131.765V23.3H129.965ZM116.165 23V21.8H114.965V21.2H116.765V23H116.165ZM119.465 24.8V24.2H120.965V24.8H119.465ZM125.165 36.8V34.7H126.665V33.2H128.165V32H128.765V33.8H127.265V35.3H125.765V36.2H128.165V34.7H129.665V33.2H134.165V27.8H133.265V29.3H129.665V27.8H128.765V29.3H126.665V27.8H125.765V30.2H127.265V32.3H125.765V33.8H123.665V29.3H122.165V27.2H123.965V27.8H122.765V28.7H124.265V33.2H125.165V31.7H126.665V30.8H125.165V27.2H127.265V28.7H128.165V27.2H130.265V28.7H132.665V27.2H134.765V33.8H130.265V35.3H128.765V36.8H125.165ZM131.165 36.8V34.7H132.965V35.3H131.765V36.2H134.165V34.7H135.665V27.5H136.265V35.3H134.765V36.8H131.165ZM129.665 32.3V30.8H128.465V30.2H130.265V31.7H131.165V30.2H133.265V32H132.665V30.8H131.765V32.3H129.665ZM122.165 36.5V35.3H120.665V33.2H122.165V30.5H122.765V33.8H121.265V34.7H122.765V36.5H122.165ZM110.165 36.8V31.7H113.765V33.5H113.165V32.3H110.765V36.2H113.165V35.3H111.665V33.5H112.265V34.7H113.765V36.8H110.165ZM114.665 38.3V34.7H119.165V33.8H117.965V33.2H119.765V35.3H115.265V37.7H116.165V36.2H121.265V38H120.665V36.8H116.765V38.3H114.665ZM123.665 36.5V35H124.265V36.5H123.665ZM110.165 41V38H110.765V41H110.165ZM119.465 44.3V43.7H120.665V42.8H117.665V39.8H113.765V41.3H111.665V38H112.265V40.7H113.165V39.2H118.265V42.2H121.265V44.3H119.465ZM119.465 41.3V40.7H120.665V39.8H119.165V38H119.765V39.2H121.265V41.3H119.465ZM114.665 42.8V41H115.265V42.2H116.165V41H116.765V42.8H114.665ZM110.165 47.3V45.5H110.765V46.7H111.665V44.3H110.165V42.2H113.765V43.7H115.265V45.2H116.765V47.3H114.965V46.7H116.165V45.8H114.665V44.3H113.165V42.8H110.765V43.7H112.265V47.3H110.165ZM117.665 47.3V44H118.265V46.7H119.165V45.2H121.265V47H120.665V45.8H119.765V47.3H117.665ZM113.165 47V45.5H113.765V47H113.165ZM139.432 41.3V39.2H143.032V40.7H143.932V38.3H140.932V34.7H143.032V36.2H143.932V34.7H145.432V31.7H148.432V30.2H149.932V25.7H151.432V24.2H152.932V18.8H151.432V17.3H149.932V15.2H152.932V12.2H155.032V13.7H157.432V12.2H160.732V12.8H158.032V14.3H154.432V12.8H153.532V15.8H150.532V16.7H152.032V18.2H153.532V24.8H152.032V26.3H150.532V30.8H149.032V32.3H146.032V35.3H144.532V36.8H142.432V35.3H141.532V37.7H144.532V41.3H142.432V39.8H140.032V40.7H141.232V41.3H139.432ZM149.932 14.3V12.2H151.732V12.8H150.532V13.7H151.732V14.3H149.932ZM163.432 15.5V14.3H161.932V12.5H162.532V13.7H164.032V15.5H163.432ZM152.932 29.3V27.2H154.432V22.7H155.932V21.8H154.432V19.7H157.432V15.2H158.932V13.7H160.732V14.3H159.532V15.8H158.032V20.3H155.032V21.2H156.532V23.3H155.032V27.8H153.532V28.7H154.732V29.3H152.932ZM142.432 32.3V30.5H143.032V31.7H143.932V30.2H145.432V27.8H143.932V25.7H148.432V22.7H151.432V21.8H148.432V14H149.032V21.2H152.032V23.3H149.032V26.3H144.532V27.2H146.032V30.8H144.532V32.3H142.432ZM158.932 18.8V16.7H160.432V15.2H162.232V15.8H161.032V17.3H159.532V18.2H161.932V16.7H165.232V17.3H162.532V18.8H158.932ZM154.432 18.8V15.5H155.032V18.2H155.932V15.5H156.532V18.8H154.432ZM166.432 33.5V32.3H164.932V28.7H167.932V26.3H166.432V24.8H165.532V27.8H164.032V30.8H161.932V27.8H160.432V21.2H163.432V18.2H165.532V21.2H167.032V23.3H164.032V24.8H162.532V25.7H163.732V26.3H161.932V24.2H163.432V22.7H166.432V21.8H164.932V18.8H164.032V21.8H161.032V27.2H162.532V30.2H163.432V27.2H164.932V24.2H167.032V25.7H168.532V29.3H165.532V31.7H167.032V33.5H166.432ZM149.932 20.3V18.5H150.532V19.7H151.732V20.3H149.932ZM145.432 24.8V22.7H146.932V18.5H147.532V23.3H146.032V24.2H147.232V24.8H145.432ZM159.232 20.3V19.7H162.232V20.3H159.232ZM157.432 23.3V21.2H159.232V21.8H158.032V22.7H159.232V23.3H157.432ZM158.932 32.3V30.5H159.532V31.7H160.432V29.3H158.932V24.8H157.732V24.2H159.532V28.7H161.032V32.3H158.932ZM157.432 29V26H158.032V29H157.432ZM146.932 29.3V27.2H148.732V27.8H147.532V28.7H148.732V29.3H146.932ZM151.432 30.8V27.5H152.032V30.2H154.732V30.8H151.432ZM167.932 33.8V31.7H169.432V30.8H166.732V30.2H170.032V32.3H168.532V33.2H169.732V33.8H167.932ZM146.932 35V33.2H149.932V31.7H151.732V32.3H150.532V33.8H147.532V35H146.932ZM163.432 33.5V32.3H162.232V31.7H164.032V33.5H163.432ZM152.932 35V32H153.532V35H152.932ZM142.732 33.8V33.2H144.232V33.8H142.732ZM155.932 42.8V37.7H157.432V33.8H156.532V36.5H155.932V33.2H158.032V38.3H156.532V42.2H158.932V41.3H157.432V39.2H158.932V36.2H160.432V35.3H158.932V33.2H162.532V34.7H164.032V39.2H165.532V40.7H166.432V36.8H165.532V38H164.932V36.2H167.032V41.3H164.932V39.8H163.432V35.3H161.932V33.8H159.532V34.7H161.032V36.8H159.532V39.8H158.032V40.7H159.532V42.8H155.932ZM167.932 38.3V36.5H168.532V37.7H169.432V35.3H164.932V33.5H165.532V34.7H170.032V38.3H167.932ZM137.932 47.3V43.7H139.432V42.2H145.432V40.7H147.532V45.2H149.932V39.2H151.432V38.3H145.432V36.2H148.432V34.7H152.032V36.2H154.432V35H155.032V36.8H151.432V35.3H149.032V36.8H146.032V37.7H152.032V39.8H150.532V45.8H146.932V41.3H146.032V42.8H140.032V44.3H138.532V46.7H139.432V45.2H140.932V43.7H143.032V45.2H146.032V47.3H141.232V46.7H145.432V45.8H142.432V44.3H141.532V45.8H140.032V47.3H137.932ZM170.932 41V35H171.532V41H170.932ZM160.432 39.8V37.7H161.932V36.5H162.532V38.3H161.032V39.2H162.232V39.8H160.432ZM152.932 42.8V41H153.532V42.2H154.432V38.3H153.532V39.5H152.932V37.7H155.032V42.8H152.932ZM145.732 39.8V39.2H147.232V39.8H145.732ZM166.732 47.3V46.7H167.932V39.5H168.532V47.3H166.732ZM169.432 41V39.5H170.032V41H169.432ZM172.432 41V39.5H173.032V41H172.432ZM148.432 44V39.5H149.032V44H148.432ZM162.232 41.3V40.7H163.732V41.3H162.232ZM151.432 42.5V41H152.032V42.5H151.432ZM161.932 44V42.8H160.432V41H161.032V42.2H162.532V44H161.932ZM163.732 42.8V42.2H165.232V42.8H163.732ZM172.432 47.3V45.8H169.732V45.2H173.032V46.7H173.932V42.8H170.032V43.7H172.732V44.3H169.432V42.2H174.532V47.3H172.432ZM144.232 44.3V43.7H145.732V44.3H144.232ZM163.432 47.3V43.7H167.032V45.5H166.432V44.3H164.032V46.7H164.932V45.5H165.532V47.3H163.432ZM147.232 47.3V46.7H148.732V47.3H147.232ZM169.732 47.3V46.7H171.232V47.3H169.732ZM186.539 31V26.2H188.039V23.8H186.539V22.3H185.039V20.2H188.039V17.2H190.139V21.7H196.139V23.2H198.539V22.3H197.039V20.8H192.539V19.3H191.039V16.3H185.639V17.2H187.139V19.3H183.539V17.8H182.039V15.7H183.539V14.2H188.039V13.3H185.339V12.7H188.639V14.8H184.139V16.3H182.639V17.2H184.139V18.7H186.539V17.8H185.039V15.7H191.639V18.7H193.139V20.2H197.639V21.7H199.139V23.8H195.539V22.3H189.539V17.8H188.639V20.8H185.639V21.7H187.139V23.2H188.639V26.8H187.139V31H186.539ZM189.539 14.8V13H190.139V14.2H191.039V12.7H193.139V14.5H192.539V13.3H191.639V14.8H189.539ZM198.539 20.5V17.2H200.039V14.8H199.139V16.3H197.039V13.3H196.139V14.8H194.039V13H194.639V14.2H195.539V12.7H197.639V15.7H198.539V14.2H200.639V17.8H199.139V20.5H198.539ZM201.539 16.3V14.5H202.139V15.7H203.339V16.3H201.539ZM192.839 17.8V17.2H194.039V16.3H192.839V15.7H194.639V17.8H192.839ZM179.339 17.8V17.2H180.539V16H181.139V17.8H179.339ZM194.339 19.3V18.7H197.039V17.8H195.539V16H196.139V17.2H197.639V19.3H194.339ZM204.539 19.3V17.8H201.839V17.2H205.139V18.7H206.339V19.3H204.539ZM200.039 23.8V21.7H201.539V20.8H200.039V18.7H203.339V19.3H200.639V20.2H202.139V22.3H200.639V23.2H204.539V20.8H203.639V22H203.039V20.2H205.139V23.8H200.039ZM182.039 25.3V23.8H180.539V20.8H177.539V18.7H182.339V19.3H178.139V20.2H181.139V23.2H182.639V24.7H183.539V23.2H185.339V23.8H184.139V25.3H182.039ZM182.039 22.3V20.2H183.839V20.8H182.639V21.7H183.839V22.3H182.039ZM206.039 23.5V20.5H206.639V23.5H206.039ZM176.039 25.3V23.2H179.039V22.3H176.339V21.7H179.639V23.8H176.639V24.7H179.339V25.3H176.039ZM182.039 32.8V31.3H179.039V26.5H179.639V30.7H182.639V32.2H183.539V29.2H185.039V28.3H183.539V26.2H185.039V24.7H186.839V25.3H185.639V26.8H184.139V27.7H185.639V29.8H184.139V32.8H182.039ZM198.539 29.8V26.8H196.139V28.3H194.039V26.8H192.539V25.3H191.339V24.7H193.139V26.2H194.639V27.7H195.539V26.2H199.139V29.2H200.039V26.5H200.639V29.8H198.539ZM180.539 28V25H181.139V28H180.539ZM189.539 26.8V25H190.139V26.2H191.339V26.8H189.539ZM177.539 29.5V26.5H178.139V29.5H177.539ZM180.839 29.8V29.2H182.039V26.5H182.639V29.8H180.839ZM201.539 35.8V27.7H203.639V29.5H203.039V28.3H202.139V35.2H204.539V32.8H203.639V34H203.039V32.2H205.139V35.8H201.539ZM188.039 31.3V27.7H190.139V29.2H191.039V27.7H192.839V28.3H191.639V29.8H189.539V28.3H188.639V30.7H192.539V29.5H193.139V31.3H188.039ZM197.039 38.8V36.7H198.539V35.8H197.039V32.8H193.139V33.7H194.639V35.8H192.839V35.2H194.039V34.3H192.539V32.2H197.639V35.2H199.139V37.3H197.639V38.2H200.039V34.3H198.539V32.2H200.039V31.3H194.039V29.2H197.039V28H197.639V29.8H194.639V30.7H200.639V32.8H199.139V33.7H200.639V38.8H197.039ZM203.339 31.3V30.7H204.539V29.5H205.139V31.3H203.339ZM206.039 34.3V29.5H206.639V33.7H207.539V32.5H208.139V34.3H206.039ZM185.039 34.3V31H185.639V33.7H186.539V32.2H188.639V34H188.039V32.8H187.139V34.3H185.039ZM189.539 34.3V32.2H191.339V32.8H190.139V33.7H191.339V34.3H189.539ZM195.539 37V34H196.139V37H195.539ZM198.539 47.5V45.7H200.039V41.2H203.039V39.7H205.139V41.2H206.039V35.2H208.139V40H207.539V35.8H206.639V41.8H204.539V40.3H203.639V41.8H200.639V46.3H199.139V47.5H198.539ZM179.039 43.3V41.8H176.039V36.7H180.839V37.3H176.639V41.2H179.639V42.7H180.539V41.2H183.539V40.3H180.539V38.2H182.039V36.7H185.639V38.2H187.139V39.7H191.039V38.5H191.639V40.3H186.539V38.8H185.039V37.3H182.639V38.8H181.139V39.7H184.139V41.8H181.139V43.3H179.039ZM188.039 38.8V37H188.639V38.2H189.839V38.8H188.039ZM195.839 44.8V44.2H198.539V39.7H201.539V38.2H203.039V37H203.639V38.8H202.139V40.3H199.139V44.8H195.839ZM204.539 38.5V37H205.139V38.5H204.539ZM177.539 40V38.2H179.639V40H179.039V38.8H178.139V40H177.539ZM192.539 47.8V44.2H194.039V42.7H195.539V41.2H197.039V40.3H195.539V38.8H194.639V40.3H192.539V38.5H193.139V39.7H194.039V38.2H196.139V39.7H197.639V41.8H196.139V43.3H194.639V44.8H193.139V47.2H194.039V45.7H197.639V47.8H195.839V47.2H197.039V46.3H194.639V47.8H192.539ZM179.339 44.8V44.2H182.039V42.7H185.039V40H185.639V43.3H182.639V44.8H179.339ZM185.039 47.8V46.3H180.839V45.7H185.639V47.2H188.039V45.7H190.139V47.2H191.039V43.3H189.539V41.2H193.139V43H192.539V41.8H190.139V42.7H191.639V47.8H189.539V46.3H188.639V47.8H185.039ZM186.539 46V42.7H188.039V41.8H186.839V41.2H188.639V43.3H187.139V46H186.539ZM201.839 44.8V44.2H203.039V42.7H205.139V44.5H204.539V43.3H203.639V44.8H201.839ZM183.839 44.8V44.2H185.339V44.8H183.839ZM188.339 44.8V44.2H189.839V44.8H188.339ZM213.803 37.2V34.2H212.303V32.1H213.803V29.1H217.403V32.7H215.903V35.1H217.103V35.7H215.303V32.1H216.803V29.7H214.403V32.7H212.903V33.6H214.403V36.6H221.303V35.1H223.403V36.6H227.303V35.7H224.303V34.2H222.803V29.1H225.803V28.2H220.403V29.7H218.303V28.2H212.903V30.9H212.303V27.6H218.903V29.1H219.803V27.6H226.403V29.7H223.403V33.6H224.903V35.1H227.903V37.2H222.803V35.7H221.903V37.2H213.803ZM227.303 30.9V27.6H229.103V28.2H227.903V30.9H227.303ZM228.803 37.2V35.1H230.303V29.7H229.403V32.7H224.303V30.6H226.103V31.2H224.903V32.1H228.803V29.1H230.903V35.7H229.403V36.6H230.603V37.2H228.803ZM219.803 34.2V32.7H218.303V30.6H220.103V31.2H218.903V32.1H220.403V33.6H221.303V29.4H221.903V34.2H219.803ZM217.103 34.2V33.6H218.603V34.2H217.103ZM226.103 34.2V33.6H229.103V34.2H226.103ZM218.603 35.7V35.1H220.103V35.7H218.603ZM212.303 36.9V35.4H212.903V36.9H212.303ZM236.288 26.3V24.2H237.788V23.3H236.288V19.7H237.788V18.8H236.288V14H236.888V18.2H238.388V20.3H236.888V22.7H238.388V24.8H236.888V25.7H239.288V19.7H240.788V15.8H237.788V13.7H239.288V12.2H244.388V13.7H245.288V12.2H247.388V15.2H248.888V16.7H249.788V13.7H251.288V12.2H254.888V13.7H259.388V15.8H253.088V15.2H258.788V14.3H254.288V12.8H251.888V14.3H250.388V17.3H248.288V15.8H246.788V12.8H245.888V14.3H243.788V12.8H239.888V14.3H238.388V15.2H241.388V20.3H239.888V26.3H236.288ZM248.288 14V12.2H250.088V12.8H248.888V14H248.288ZM241.088 14.3V13.7H242.588V14.3H241.088ZM252.788 29.3V27.2H254.288V25.7H257.288V24.8H254.288V21.8H252.788V20.3H248.288V18.8H242.288V16.7H245.288V15.8H244.088V15.2H245.888V17.3H242.888V18.2H248.888V19.7H253.388V21.2H254.888V24.2H257.888V26.3H254.888V27.8H253.388V28.7H257.288V27.8H256.088V27.2H257.888V29.3H252.788ZM260.588 15.8V15.2H262.088V15.8H260.588ZM250.088 18.8V18.2H252.788V17.3H251.288V15.5H251.888V16.7H253.388V18.8H250.088ZM239.288 18.5V17.3H238.088V16.7H239.888V18.5H239.288ZM262.088 18.8V18.2H263.288V17.3H259.088V16.7H263.888V18.8H262.088ZM263.288 24.8V20.3H262.388V21.8H258.788V20.3H257.888V21.8H255.788V18.8H254.288V16.7H257.888V18.2H260.888V20H260.288V18.8H257.288V17.3H254.888V18.2H256.388V21.2H257.288V19.7H259.388V21.2H261.788V19.7H263.888V24.2H266.288V23H266.888V24.8H263.288ZM264.788 18.5V17H265.388V18.5H264.788ZM255.788 36.8V33.2H257.588V33.8H256.388V36.2H257.288V34.7H258.788V32.3H255.788V30.8H251.288V27.8H248.288V23.3H246.788V21.8H245.888V23.3H244.388V24.2H247.388V27.8H242.288V24.8H240.788V22.7H242.288V21.2H243.788V19.7H245.588V20.3H244.388V21.8H242.888V23.3H241.388V24.2H242.888V27.2H246.788V24.8H243.788V22.7H245.288V21.2H247.388V22.7H248.888V27.2H251.888V30.2H256.388V31.7H259.388V35.3H257.888V36.8H255.788ZM265.088 20.3V19.7H266.588V20.3H265.088ZM248.588 21.8V21.2H251.588V21.8H248.588ZM264.788 23V21.2H266.588V21.8H265.388V23H264.788ZM256.088 23.3V22.7H259.088V23.3H256.088ZM258.788 27.8V24.2H260.288V22.7H262.388V24.5H261.788V23.3H260.888V24.8H259.388V27.2H260.288V25.7H262.388V27.2H263.588V27.8H261.788V26.3H260.888V27.8H258.788ZM263.588 26.3V25.7H265.088V26.3H263.588ZM244.088 26.3V25.7H245.588V26.3H244.088ZM245.288 33.8V32.3H244.088V31.7H245.888V33.2H246.788V29.3H240.788V26H241.388V28.7H247.388V33.8H245.288ZM236.288 30.8V29H236.888V30.2H237.788V27.8H236.588V27.2H238.388V30.8H236.288ZM239.288 30.5V27.5H239.888V30.5H239.288ZM263.288 32.3V29H263.888V31.7H264.788V27.5H265.388V32.3H263.288ZM266.288 29V27.5H266.888V29H266.288ZM248.288 32.3V28.7H250.388V30.5H249.788V29.3H248.888V31.7H250.088V32.3H248.288ZM260.288 33.8V31.7H261.788V29.3H259.388V30.2H260.588V30.8H258.788V28.7H262.388V32.3H260.888V33.2H262.088V33.8H260.288ZM244.088 30.8V30.2H245.588V30.8H244.088ZM236.288 47.3V43.7H239.288V42.2H241.388V44H240.788V42.8H239.888V44.3H236.888V46.7H240.788V45.2H242.888V46.7H248.288V45.8H243.788V44.3H242.288V41.3H238.388V42.8H236.288V37.7H238.388V39.2H239.288V36.2H240.788V35.3H239.288V31.7H240.788V30.2H242.888V33.2H244.388V34.7H245.888V36.2H246.788V34.7H248.888V36.2H252.788V35.3H250.088V34.7H253.388V36.8H248.288V35.3H247.388V36.8H245.288V35.3H243.788V33.8H242.288V30.8H241.388V32.3H239.888V34.7H241.388V36.8H239.888V39.8H237.788V38.3H236.888V42.2H237.788V40.7H242.888V43.7H244.388V45.2H248.888V47.3H242.288V45.8H241.388V47.3H236.288ZM254.288 35V33.8H252.788V32.3H251.588V31.7H253.388V33.2H254.888V35H254.288ZM236.588 33.8V33.2H237.788V32.3H236.588V31.7H238.388V33.8H236.588ZM248.588 33.8V33.2H251.588V33.8H248.588ZM236.288 36.5V34.7H238.388V36.5H237.788V35.3H236.888V36.5H236.288ZM260.588 35.3V34.7H262.088V35.3H260.588ZM245.288 44.3V42.2H248.288V41.3H246.788V39.2H248.288V38.3H245.888V41.3H243.788V39.8H240.788V37.7H242.288V35H242.888V38.3H241.388V39.2H244.388V40.7H245.288V37.7H248.888V39.8H247.388V40.7H248.888V42.8H245.888V43.7H247.088V44.3H245.288ZM243.788 38V36.5H244.388V38H243.788ZM238.088 45.8V45.2H239.588V45.8H238.088ZM271.842 14.3V13.7H273.042V12.2H275.142V13.7H276.342V14.3H274.542V12.8H273.642V14.3H271.842ZM277.542 14V12.8H276.342V12.2H278.142V14H277.542ZM277.542 17.3V15.5H278.142V16.7H280.542V12.8H279.642V15.5H279.042V12.2H281.142V17.3H277.542ZM289.542 33.8V31.7H291.042V30.8H289.542V28.7H291.042V27.8H289.542V22.7H291.642V24.2H293.142V25.7H294.042V22.7H295.542V21.8H291.042V20.3H288.042V18.2H294.642V19.7H295.542V17.3H292.542V14.3H288.042V12.8H282.642V16.7H283.542V15.2H285.642V16.7H287.142V20H286.542V17.3H285.042V15.8H284.142V17.3H282.042V12.2H288.642V13.7H293.142V16.7H296.142V20.3H294.042V18.8H288.642V19.7H291.642V21.2H296.142V23.3H294.642V26.3H292.542V24.8H291.042V23.3H290.142V27.2H291.642V29.3H290.142V30.2H291.642V32.3H290.142V33.2H292.542V31.7H294.642V33.5H294.042V32.3H293.142V33.8H289.542ZM297.042 21.8V20H297.642V21.2H301.542V20.3H298.542V18.8H297.042V15.8H294.042V13.7H295.842V14.3H294.642V15.2H297.642V18.2H299.142V19.7H302.142V21.8H297.042ZM283.842 14.3V13.7H285.342V14.3H283.842ZM288.042 17.3V15.8H286.542V14H287.142V15.2H288.642V16.7H289.542V15.2H291.642V17H291.042V15.8H290.142V17.3H288.042ZM282.042 30.8V29.3H280.542V26.3H279.642V27.8H277.542V20.3H276.642V23.3H274.542V21.8H273.642V24.8H271.542V15.2H276.642V17.3H275.142V20.3H273.042V17H273.642V19.7H274.542V16.7H276.042V15.8H272.142V24.2H273.042V21.2H275.142V22.7H276.042V19.7H278.142V27.2H279.042V25.7H281.142V28.7H282.642V30.2H283.542V27.8H282.042V25.7H283.542V21.8H282.642V23.3H280.542V21.5H281.142V22.7H282.042V21.2H284.142V26.3H282.642V27.2H284.142V30.8H282.042ZM280.842 20.3V19.7H282.042V18.2H285.642V20.3H283.842V19.7H285.042V18.8H282.642V20.3H280.842ZM279.042 23V18.8H276.342V18.2H279.642V23H279.042ZM285.342 21.8V21.2H289.842V21.8H285.342ZM292.542 30.8V27.2H295.542V25.7H301.542V24.8H300.042V23.3H297.642V24.2H298.842V24.8H297.042V22.7H300.642V24.2H302.142V26.3H296.142V27.8H293.142V30.2H295.542V29.3H294.342V28.7H296.142V30.8H292.542ZM279.342 24.8V24.2H282.342V24.8H279.342ZM271.542 27.8V25.7H274.542V24.2H276.642V26H276.042V24.8H275.142V26.3H272.142V27.2H276.342V27.8H271.542ZM298.542 32.3V30.2H300.042V28.7H301.542V27.8H299.142V29.3H297.342V28.7H298.542V27.2H302.142V29.3H300.642V30.8H299.142V31.7H300.342V32.3H298.542ZM286.542 30.8V29H287.142V30.2H288.042V27.8H285.642V29H285.042V27.2H288.642V30.8H286.542ZM282.042 47V45.2H283.542V42.8H282.642V44.3H280.542V40.7H283.542V39.8H280.542V36.8H279.042V35.3H276.042V30.8H273.642V32.3H271.542V28.7H279.642V32.3H277.542V30.5H278.142V31.7H279.042V29.3H272.142V31.7H273.042V30.2H276.642V34.7H279.642V36.2H281.142V39.2H284.142V41.3H281.142V43.7H282.042V42.2H284.142V45.8H282.642V47H282.042ZM280.542 35V30.5H281.142V35H280.542ZM295.842 32.3V31.7H297.042V30.5H297.642V32.3H295.842ZM282.342 32.3V31.7H283.842V32.3H282.342ZM286.542 33.8V32.3H285.342V31.7H287.142V33.2H288.042V32H288.642V33.8H286.542ZM271.542 38.3V33.2H273.642V36.2H274.542V32H275.142V36.8H273.042V33.8H272.142V37.7H276.042V36.2H277.842V36.8H276.642V38.3H271.542ZM300.042 45.8V44.3H292.542V42.2H298.542V41.3H297.042V39.2H298.542V38.3H297.042V33.8H296.142V35.3H291.642V37.7H293.142V39.2H294.042V37.7H295.842V38.3H294.642V39.8H292.542V38.3H291.042V34.7H295.542V33.2H297.642V37.7H299.142V39.8H297.642V40.7H299.142V42.8H293.142V43.7H300.642V45.2H301.542V44H302.142V45.8H300.042ZM283.542 36.8V35H284.142V36.2H285.042V33.8H282.642V35H282.042V33.2H285.642V36.8H283.542ZM277.842 33.8V33.2H279.342V33.8H277.842ZM288.042 42.8V39.8H286.542V38H287.142V39.2H288.642V42.2H289.542V38.3H288.042V36.2H289.542V35.3H287.142V36.5H286.542V34.7H290.142V36.8H288.642V37.7H290.142V42.8H288.042ZM292.842 36.8V36.2H295.842V36.8H292.842ZM282.042 38V36.5H282.642V38H282.042ZM277.542 47.3V42.8H276.342V42.2H278.142V46.7H279.042V38.3H278.142V41.3H275.142V43.7H276.642V45.5H276.042V44.3H274.542V40.7H277.542V37.7H279.642V47.3H277.542ZM271.842 39.8V39.2H276.342V39.8H271.842ZM271.542 42.5V40.7H273.642V42.5H273.042V41.3H272.142V42.5H271.542ZM291.042 47.3V45.8H289.542V43.7H291.042V40.7H295.842V41.3H291.642V44.3H290.142V45.2H291.642V46.7H297.042V45.8H292.842V45.2H297.642V47.3H291.042ZM300.042 42.5V41H300.642V42.5H300.042ZM273.042 47.3V45.8H271.542V44H272.142V45.2H273.642V46.7H276.342V47.3H273.042ZM280.542 47V45.5H281.142V47H280.542ZM298.542 47V45.5H299.142V47H298.542ZM300.342 47.3V46.7H303.042V45.5H303.642V47.3H300.342ZM315.682 13.3V12.7H327.682V13.3H315.682ZM312.682 14.8V14.2H314.182V14.8H312.682ZM313.882 22V20.2H319.882V17.2H323.482V18.7H324.382V16.3H322.882V14.8H321.982V16.3H319.882V14.8H315.982V16.3H314.482V18.7H316.882V17.8H315.682V17.2H317.482V19.3H313.882V15.7H315.382V14.2H320.482V15.7H321.382V14.2H323.482V15.7H324.982V19.3H322.882V17.8H320.482V20.8H314.482V22H313.882ZM331.882 22.3V18.7H333.382V17.8H330.382V16.3H327.382V14.8H326.482V16H325.882V14.2H327.982V15.7H330.982V17.2H333.982V19.3H332.482V21.7H336.382V17.8H334.882V16.3H331.882V14.8H329.182V14.2H332.482V15.7H335.482V17.2H336.982V22.3H331.882ZM317.182 16.3V15.7H318.682V16.3H317.182ZM307.882 20.5V18.7H309.382V17.2H310.882V15.7H312.982V19.3H311.182V18.7H312.382V16.3H311.482V17.8H309.982V19.3H308.482V20.5H307.882ZM325.882 28.3V22.3H324.382V20.2H325.882V17.2H327.982V18.7H329.482V20.2H330.982V22.3H327.382V20.5H327.982V21.7H330.382V20.8H328.882V19.3H327.382V17.8H326.482V20.8H324.982V21.7H326.482V27.7H327.382V23.2H329.182V23.8H327.982V28.3H325.882ZM318.382 19V17.5H318.982V19H318.382ZM321.682 22.3V21.7H322.882V20.8H321.382V19H321.982V20.2H323.482V22.3H321.682ZM334.882 20.5V19H335.482V20.5H334.882ZM309.382 28.3V26.8H306.382V23.2H307.882V21.7H309.382V20.2H312.982V22.3H311.482V23.8H309.982V24.7H312.682V25.3H309.382V23.2H310.882V21.7H312.382V20.8H309.982V22.3H308.482V23.8H306.982V26.2H309.982V27.7H310.882V26.2H313.882V24.7H318.382V23.5H318.982V25.3H314.482V26.8H311.482V28.3H309.382ZM337.882 22V20.5H338.482V22H337.882ZM315.382 23.8V21.7H320.182V22.3H315.982V23.2H317.182V23.8H315.382ZM312.682 23.8V23.2H314.182V23.8H312.682ZM331.882 26.5V23.8H330.682V23.2H332.482V26.5H331.882ZM336.382 26.5V25.3H333.382V23.2H336.682V23.8H333.982V24.7H336.982V26.5H336.382ZM337.882 28.3V23.5H338.482V27.7H339.382V25H339.982V28.3H337.882ZM331.882 35.8V33.7H334.882V32.8H330.382V28.3H328.882V24.7H330.982V26.5H330.382V25.3H329.482V27.7H330.982V32.2H335.482V34.3H332.482V35.2H336.382V33.7H338.182V34.3H336.982V35.8H331.882ZM316.882 32.8V29.8H314.482V30.7H315.682V31.3H313.882V29.2H317.482V32.2H318.382V26.8H317.182V26.2H318.982V32.8H316.882ZM336.682 37.3V36.7H337.882V35.2H339.382V32.8H336.382V30.7H337.882V29.8H336.382V28.3H334.882V26.8H333.982V28.3H332.482V30.7H334.882V29.8H333.682V29.2H335.482V31.3H331.882V27.7H333.382V26.2H335.482V27.7H336.982V29.2H338.482V31.3H336.982V32.2H339.982V35.8H338.482V37.3H336.682ZM306.682 28.3V27.7H308.182V28.3H306.682ZM314.182 28.3V27.7H317.182V28.3H314.182ZM315.382 47.8V46.3H312.382V44.2H315.382V42.7H317.482V44.5H316.882V43.3H315.982V44.8H312.982V45.7H315.982V47.2H316.882V45.7H318.982V47.2H319.882V44.8H318.382V39.7H319.882V37.3H318.382V35.8H316.882V34.3H315.382V32.8H314.482V35.8H309.382V31.3H307.882V29.2H311.482V30.7H312.382V28H312.982V31.3H310.882V29.8H308.482V30.7H309.982V35.2H313.882V32.2H315.982V33.7H317.482V35.2H318.982V36.7H320.482V40.3H318.982V44.2H320.482V47.8H318.382V46.3H317.482V47.8H315.382ZM322.882 47.8V46.3H321.382V44.2H324.382V42.7H325.882V41.2H327.982V44.8H326.482V45.7H328.882V38.8H325.882V36.7H327.382V35.8H325.882V29.2H327.982V30.7H329.482V34.3H327.382V32.5H327.982V33.7H328.882V31.3H327.382V29.8H326.482V35.2H327.982V37.3H326.482V38.2H329.482V46.3H325.882V44.2H327.382V41.8H326.482V43.3H324.982V44.8H321.982V45.7H323.482V47.2H329.182V47.8H322.882ZM339.382 31V29.5H339.982V31H339.382ZM306.382 35.8V33.7H307.882V32.8H306.382V29.5H306.982V32.2H308.482V34.3H306.982V35.2H308.182V35.8H306.382ZM311.182 34.3V33.7H312.382V32.8H311.182V32.2H312.982V34.3H311.182ZM330.382 40.3V38.5H330.982V39.7H331.882V37.3H330.382V35.8H329.482V37H328.882V35.2H330.982V36.7H332.482V40.3H330.382ZM315.382 41.8V38.8H313.882V36.7H315.382V35.5H315.982V37.3H314.482V38.2H315.982V41.2H316.882V38.2H318.682V38.8H317.482V41.8H315.382ZM307.882 41.5V37.3H306.982V38.5H306.382V36.7H308.482V41.5H307.882ZM310.882 41.8V40.3H309.382V37H309.982V39.7H311.482V41.2H313.882V40.3H312.382V37.3H311.482V38.5H310.882V36.7H312.982V39.7H314.482V41.8H310.882ZM330.382 44.8V41.2H332.482V42.7H334.882V37.3H333.682V36.7H335.482V43.3H331.882V41.8H330.982V44.2H335.182V44.8H330.382ZM321.382 43.3V39.7H322.882V38.2H324.982V39.7H327.682V40.3H324.382V38.8H323.482V40.3H321.982V42.7H322.882V41.5H323.482V43.3H321.382ZM336.382 43V39.7H337.882V38.8H336.682V38.2H338.482V40.3H336.982V43H336.382ZM333.382 41.5V40H333.982V41.5H333.382ZM310.882 44.5V43.3H309.382V41.5H309.982V42.7H311.482V44.5H310.882ZM319.882 43V41.5H320.482V43H319.882ZM312.682 43.3V42.7H314.182V43.3H312.682ZM330.682 46.3V45.7H332.182V46.3H330.682Z" fill="white"/>
</g>
</g>
<defs>
<filter id="filter0_di_1_7" x="-4" y="0" width="373" height="65" filterUnits="userSpaceOnUse" color-interpolation-filters="sRGB">
<feFlood flood-opacity="0" result="BackgroundImageFix"/>
<feColorMatrix in="SourceAlpha" type="matrix" values="0 0 0 0 0 0 0 0 0 0 0 0 0 0 0 0 0 0 127 0" result="hardAlpha"/>
<feOffset dy="4"/>
<feGaussianBlur stdDeviation="2"/>
<feComposite in2="hardAlpha" operator="out"/>
<feColorMatrix type="matrix" values="0 0 0 0 0 0 0 0 0 0 0 0 0 0 0 0 0 0 0.39 0"/>
<feBlend mode="normal" in2="BackgroundImageFix" result="effect1_dropShadow_1_7"/>
<feBlend mode="normal" in="SourceGraphic" in2="effect1_dropShadow_1_7" result="shape"/>
<feColorMatrix in="SourceAlpha" type="matrix" values="0 0 0 0 0 0 0 0 0 0 0 0 0 0 0 0 0 0 127 0" result="hardAlpha"/>
<feOffset dy="1"/>
<feGaussianBlur stdDeviation="2.05"/>
<feComposite in2="hardAlpha" operator="arithmetic" k2="-1" k3="1"/>
<feColorMatrix type="matrix" values="0 0 0 0 0 0 0 0 0 0 0 0 0 0 0 0 0 0 0.77 0"/>
<feBlend mode="normal" in2="shape" result="effect2_innerShadow_1_7"/>
</filter>
<filter id="filter1_d_1_7" x="31.409" y="12.2" width="312.573" height="43.6" filterUnits="userSpaceOnUse" color-interpolation-filters="sRGB">
<feFlood flood-opacity="0" result="BackgroundImageFix"/>
<feColorMatrix in="SourceAlpha" type="matrix" values="0 0 0 0 0 0 0 0 0 0 0 0 0 0 0 0 0 0 127 0" result="hardAlpha"/>
<feOffset dy="4"/>
<feGaussianBlur stdDeviation="2"/>
<feComposite in2="hardAlpha" operator="out"/>
<feColorMatrix type="matrix" values="0 0 0 0 0 0 0 0 0 0 0 0 0 0 0 0 0 0 1 0"/>
<feBlend mode="normal" in2="BackgroundImageFix" result="effect1_dropShadow_1_7"/>
<feBlend mode="normal" in="SourceGraphic" in2="effect1_dropShadow_1_7" result="shape"/>
</filter>
</defs>
</svg>
