<svg width="71" height="23" viewBox="0 0 71 23" fill="none" xmlns="http://www.w3.org/2000/svg">
<path d="M0 15V0.839999H0.72V15H0ZM1.44 15V0.839999H3.6V15H1.44ZM5.76 15V0.839999H7.2V15H5.76ZM2.184 17.088H2.784L5.112 21.216V17.088H5.808V17.16C5.76 17.192 5.736 17.232 5.736 17.28C5.72 17.312 5.712 17.384 5.712 17.496V22.656H5.232L2.76 18.288V22.656H2.184V17.088ZM7.92188 15V0.839999H8.64188V15H7.92188ZM9.36188 15V0.839999H10.0819V15H9.36188ZM12.2419 15V0.839999H13.6819V15H12.2419ZM12.7699 21.024H10.9699L10.4179 22.656H9.79388L11.8339 16.992H11.9059L13.9699 22.656H13.3219L12.7699 21.024ZM12.6019 20.544L11.8819 18.432L11.1379 20.544H12.6019ZM15.8438 15V0.839999H16.5638V15H15.8438ZM18.7238 15V0.839999H20.1638V15H18.7238ZM22.3238 15V0.839999H23.0438V15H22.3238ZM18.2678 17.088H21.4598V17.64H18.8918V19.392H20.9798V19.92H18.8918V22.656H18.2678V17.088ZM23.7656 15V0.839999H24.4856V15H23.7656ZM25.2056 15V0.839999H25.9256V15H25.2056ZM28.0856 15V0.839999H29.5256V15H28.0856ZM28.6136 21.024H26.8136L26.2616 22.656H25.6376L27.6776 16.992H27.7496L29.8136 22.656H29.1656L28.6136 21.024ZM28.4456 20.544L27.7256 18.432L26.9816 20.544H28.4456ZM31.6875 15V0.839999H33.1275V15H31.6875ZM33.8475 15V0.839999H36.0075V15H33.8475ZM36.7275 15V0.839999H37.4475V15H36.7275ZM35.6235 22.752C34.9035 22.752 34.3195 22.512 33.8715 22.032L34.2075 21.48L34.2315 21.408L34.3035 21.432C34.3035 21.448 34.3115 21.48 34.3275 21.528C34.3275 21.56 34.3435 21.6 34.3755 21.648C34.3915 21.68 34.4235 21.712 34.4715 21.744C34.8075 22.032 35.2235 22.176 35.7195 22.176C36.0395 22.176 36.3115 22.088 36.5355 21.912C36.7595 21.72 36.8715 21.496 36.8715 21.24C36.8715 21.064 36.8315 20.912 36.7515 20.784C36.6875 20.672 36.5675 20.56 36.3915 20.448C36.2155 20.336 35.9435 20.2 35.5755 20.04C35.0315 19.832 34.6395 19.592 34.3995 19.32C34.1755 19.048 34.0635 18.744 34.0635 18.408C34.0635 17.992 34.2155 17.656 34.5195 17.4C34.8235 17.144 35.2315 17.016 35.7435 17.016C36.0475 17.016 36.3355 17.08 36.6075 17.208C36.8635 17.336 37.0955 17.504 37.3035 17.712L36.8955 18.264L36.8475 18.216C36.8475 18.2 36.8395 18.176 36.8235 18.144C36.8235 18.096 36.8075 18.056 36.7755 18.024C36.7595 17.976 36.7275 17.936 36.6795 17.904C36.5515 17.776 36.3995 17.68 36.2235 17.616C36.0635 17.568 35.8715 17.544 35.6475 17.544C35.3595 17.544 35.1355 17.624 34.9755 17.784C34.7995 17.944 34.7115 18.136 34.7115 18.36C34.7115 18.536 34.7435 18.688 34.8075 18.816C34.8875 18.944 35.0235 19.064 35.2155 19.176C35.4075 19.304 35.6955 19.44 36.0795 19.584C36.6075 19.808 36.9755 20.032 37.1835 20.256C37.3755 20.496 37.4715 20.792 37.4715 21.144C37.4715 21.416 37.4075 21.672 37.2795 21.912C37.1355 22.152 36.9275 22.352 36.6555 22.512C36.3675 22.672 36.0235 22.752 35.6235 22.752ZM39.6094 15V0.839999H40.3294V15H39.6094ZM41.7694 15V0.839999H43.2094V15H41.7694ZM43.9294 15V0.839999H46.0894V15H43.9294ZM41.9614 19.56H45.1774V20.16H41.9614V19.56ZM47.5312 15V0.839999H49.6913V15H47.5312ZM50.4113 15V0.839999H52.5713V15H50.4113ZM53.2913 15V0.839999H54.7313V15H53.2913ZM49.7873 17.088H51.5633C52.1553 17.088 52.5953 17.24 52.8833 17.544C53.1873 17.832 53.3393 18.208 53.3393 18.672C53.3393 19.12 53.1953 19.488 52.9073 19.776C52.6193 20.064 52.1873 20.208 51.6113 20.208H50.4353V22.656H49.7873V17.088ZM51.5393 19.656C51.9393 19.656 52.2273 19.568 52.4033 19.392C52.5953 19.232 52.6913 19 52.6913 18.696C52.6913 18.392 52.5953 18.152 52.4033 17.976C52.2113 17.784 51.9313 17.688 51.5633 17.688H50.4353V19.656H51.5393ZM55.4531 15V0.839999H56.8931V15H55.4531ZM59.0531 15V0.839999H59.7731V15H59.0531ZM60.4931 15V0.839999H62.6531V15H60.4931ZM57.6851 17.088H59.3171C59.9571 17.088 60.4211 17.232 60.7091 17.52C61.0131 17.792 61.1651 18.184 61.1651 18.696C61.1651 19.016 61.0611 19.32 60.8531 19.608C60.6451 19.896 60.3731 20.088 60.0371 20.184L61.3331 22.656H60.6371L59.3891 20.208H58.3091V22.656H57.6851V17.088ZM59.3891 19.656C59.7731 19.656 60.0611 19.568 60.2531 19.392C60.4291 19.232 60.5171 19 60.5171 18.696C60.5171 18.392 60.4291 18.144 60.2531 17.952C60.0611 17.776 59.7731 17.688 59.3891 17.688H58.3091V19.656H59.3891ZM63.375 15V0.839999H64.095V15H63.375ZM66.255 15V0.839999H68.415V15H66.255ZM69.135 15V0.839999H70.575V15H69.135ZM67.335 22.752C66.695 22.752 66.207 22.504 65.871 22.008C65.519 21.512 65.343 20.808 65.343 19.896C65.343 19.016 65.519 18.32 65.871 17.808C66.223 17.312 66.711 17.064 67.335 17.064C67.959 17.064 68.447 17.312 68.799 17.808C69.151 18.32 69.327 19.016 69.327 19.896C69.327 20.808 69.151 21.512 68.799 22.008C68.463 22.504 67.975 22.752 67.335 22.752ZM67.335 22.2C67.767 22.2 68.095 22.008 68.319 21.624C68.559 21.224 68.679 20.648 68.679 19.896C68.679 19.192 68.559 18.632 68.319 18.216C68.079 17.816 67.751 17.616 67.335 17.616C66.919 17.616 66.591 17.816 66.351 18.216C66.111 18.632 65.991 19.192 65.991 19.896C65.991 20.648 66.103 21.224 66.327 21.624C66.567 22.008 66.903 22.2 67.335 22.2Z" fill="#047481"/>
</svg>
