<svg width="416" height="62" viewBox="0 0 416 62" fill="none" xmlns="http://www.w3.org/2000/svg">
<path d="M0 58V1.36H2.88V58H0ZM5.76 58V1.36H8.64V58H5.76ZM11.52 58V1.36H20.16V58H11.52ZM23.04 58V1.36H25.92V58H23.04ZM34.56 58V1.36H43.2V58H34.56ZM46.125 58V1.36H54.765V58H46.125ZM57.645 58V1.36H60.525V58H57.645ZM63.405 58V1.36H66.285V58H63.405ZM74.925 58V1.36H77.805V58H74.925ZM80.685 58V1.36H89.325V58H80.685ZM92.25 58V1.36H95.13V58H92.25ZM98.01 58V1.36H106.65V58H98.01ZM109.53 58V1.36H118.17V58H109.53ZM126.81 58V1.36H129.69V58H126.81ZM132.57 58V1.36H135.45V58H132.57ZM138.375 58V1.36H147.015V58H138.375ZM149.895 58V1.36H152.775V58H149.895ZM155.655 58V1.36H158.535V58H155.655ZM167.175 58V1.36H170.055V58H167.175ZM172.935 58V1.36H181.575V58H172.935ZM184.5 58V1.36H187.38V58H184.5ZM190.26 58V1.36H198.9V58H190.26ZM201.78 58V1.36H204.66V58H201.78ZM207.54 58V1.36H216.18V58H207.54ZM224.82 58V1.36H227.7V58H224.82ZM230.625 58V1.36H233.505V58H230.625ZM242.145 58V1.36H245.025V58H242.145ZM247.905 58V1.36H250.785V58H247.905ZM253.665 58V1.36H262.305V58H253.665ZM265.185 58V1.36H273.825V58H265.185ZM276.75 58V1.36H279.63V58H276.75ZM282.51 58V1.36H291.15V58H282.51ZM294.03 58V1.36H302.67V58H294.03ZM305.55 58V1.36H308.43V58H305.55ZM317.07 58V1.36H319.95V58H317.07ZM322.875 58V1.36H331.515V58H322.875ZM334.395 58V1.36H337.275V58H334.395ZM340.155 58V1.36H343.035V58H340.155ZM345.915 58V1.36H354.555V58H345.915ZM363.195 58V1.36H366.075V58H363.195ZM369 58V1.36H377.64V58H369ZM380.52 58V1.36H383.4V58H380.52ZM386.28 58V1.36H394.92V58H386.28ZM397.8 58V1.36H400.68V58H397.8ZM409.32 58V1.36H412.2V58H409.32Z" fill="#047481"/>
<g filter="url(#filter0_d_1_7)">
<path d="M13.3235 21.664V19.36H14.0915V20.896H15.2435V17.824H13.3235V15.136H15.2435V7.456H17.9315V11.68H17.1635V8.224H16.0115V15.904H14.0915V17.056H16.0115V21.664H13.3235ZM21.0035 12.064V9.376H23.3075V10.144H21.7715V11.296H26.7635V10.144H24.8435V8.224H19.8515V9.76H19.0835V7.456H25.6115V9.376H27.5315V12.064H21.0035ZM40.2035 17.824V15.904H38.2835V13.216H40.2035V12.064H38.2835V9.376H40.2035V7.84H40.9715V10.144H39.0515V11.296H40.9715V13.984H39.0515V15.136H40.9715V17.056H42.1235V11.296H44.8115V13.216H45.9635V8.224H42.8915V9.376H44.4275V10.144H42.1235V7.456H46.7315V13.984H44.0435V12.064H42.8915V17.824H40.2035ZM48.2675 8.224V7.456H50.1875V8.224H48.2675ZM48.2675 13.984V13.216H51.7235V10.144H48.6515V11.296H50.1875V12.064H47.8835V9.376H52.4915V13.984H48.2675ZM13.3235 13.6V9.76H14.0915V13.6H13.3235ZM19.0835 15.904V11.68H19.8515V15.136H21.3875V15.904H19.0835ZM21.3875 13.984V13.216H25.2275V13.984H21.3875ZM19.0835 21.664V19.744H17.1635V17.056H21.7715V18.976H22.9235V15.136H26.7635V13.216H29.4515V15.136H30.9875V15.904H28.6835V13.984H27.5315V15.904H23.6915V19.744H21.0035V17.824H17.9315V18.976H19.8515V20.896H23.3075V21.664H19.0835ZM17.1635 15.52V13.6H17.9315V15.52H17.1635ZM45.9635 17.824V15.904H44.8115V17.44H44.0435V15.136H46.7315V17.056H47.8835V15.136H50.5715V17.056H51.7235V15.52H52.4915V17.824H49.8035V15.904H48.6515V17.824H45.9635ZM21.0035 48.544V46.624H19.0835V42.784H17.5475V42.016H19.8515V45.856H21.7715V47.776H22.9235V45.856H25.6115V47.776H26.7635V42.784H24.8435V40.096H26.7635V38.944H24.8435V36.256H26.7635V26.656H28.6835V21.664H24.8435V17.056H31.3715V19.744H27.1475V18.976H30.6035V17.824H25.6115V20.896H29.4515V27.424H27.5315V37.024H25.6115V38.176H27.5315V40.864H25.6115V42.016H27.5315V48.544H24.8435V46.624H23.6915V48.544H21.0035ZM38.2835 23.584V17.44H39.0515V22.816H40.5875V23.584H38.2835ZM47.8835 42.784V40.096H50.1875V40.864H48.6515V42.016H51.7235V33.184H50.5715V35.104H47.8835V31.264H44.8115V32.416H46.7315V36.256H50.5715V38.944H44.0435V35.104H42.1235V31.264H40.2035V27.424H38.2835V24.736H44.8115V27.424H42.8915V28.576H50.5715V30.496H51.7235V27.424H49.8035V24.736H51.7235V19.744H46.7315V20.896H48.6515V23.584H42.1235V20.896H44.4275V21.664H42.8915V22.816H47.8835V21.664H45.9635V18.976H52.4915V25.504H50.5715V26.656H52.4915V31.264H49.8035V29.344H42.1235V26.656H44.0435V25.504H39.0515V26.656H40.9715V30.496H42.8915V34.336H44.8115V38.176H49.8035V37.024H45.9635V33.184H44.0435V30.496H48.6515V34.336H49.8035V32.416H52.4915V42.784H47.8835ZM40.2035 21.28V18.976H44.4275V19.744H40.9715V21.28H40.2035ZM29.0675 37.024V36.256H32.5235V35.104H28.6835V32.416H30.6035V30.496H32.5235V29.344H30.6035V26.656H32.5235V24.736H34.4435V21.664H33.2915V23.584H30.6035V21.28H31.3715V22.816H32.5235V20.896H35.2115V25.504H33.2915V27.424H31.3715V28.576H33.2915V31.264H31.3715V33.184H29.4515V34.336H33.2915V37.024H29.0675ZM49.8035 23.2V21.28H50.5715V23.2H49.8035ZM17.1635 23.584V21.28H17.9315V22.816H21.3875V23.584H17.1635ZM24.8435 25.504V23.584H23.6915V25.12H22.9235V22.816H25.6115V24.736H26.7635V23.2H27.5315V25.504H24.8435ZM13.3235 31.264V26.656H19.0835V25.504H13.3235V22.816H15.6275V23.584H14.0915V24.736H19.8515V27.424H14.0915V30.496H17.1635V29.344H15.6275V28.576H17.9315V31.264H13.3235ZM45.9635 27.424V24.736H48.2675V25.504H46.7315V26.656H48.2675V27.424H45.9635ZM34.8275 27.424V26.656H36.3635V25.12H37.1315V27.424H34.8275ZM24.8435 28.96V27.424H21.0035V25.12H21.7715V26.656H25.6115V28.96H24.8435ZM21.0035 35.104V28.576H23.3075V29.344H21.7715V34.336H24.8435V31.264H23.6915V32.8H22.9235V30.496H25.6115V35.104H21.0035ZM32.9075 33.184V32.416H38.2835V29.344H35.2115V30.496H36.7475V31.264H34.4435V28.576H39.0515V33.184H32.9075ZM19.0835 30.88V28.96H19.8515V30.88H19.0835ZM28.6835 30.88V28.96H29.4515V30.88H28.6835ZM21.0035 44.704V42.016H22.9235V38.944H19.8515V40.864H17.1635V38.944H15.2435V37.024H13.3235V34.336H15.2435V33.184H13.7075V32.416H16.0115V35.104H14.0915V36.256H16.0115V38.176H17.9315V40.096H19.0835V38.176H23.6915V42.784H21.7715V43.936H25.2275V44.704H21.0035ZM19.0835 37.024V35.104H17.1635V32.8H17.9315V34.336H19.8515V36.256H23.3075V37.024H19.0835ZM38.6675 35.104V34.336H40.2035V32.8H40.9715V35.104H38.6675ZM34.4435 36.64V34.72H35.2115V36.64H34.4435ZM38.2835 40.864V38.176H42.1235V37.024H36.3635V34.72H37.1315V36.256H42.8915V38.944H39.0515V40.096H46.3475V40.864H38.2835ZM40.2035 52.384V50.464H39.0515V52H38.2835V49.696H40.9715V51.616H44.0435V50.464H42.1235V45.856H44.8115V47.776H47.8835V46.624H45.9635V42.784H39.0515V44.704H36.3635V42.784H34.4435V38.944H31.3715V40.096H33.2915V42.4H32.5235V40.864H30.6035V38.176H35.2115V42.016H37.1315V43.936H38.2835V42.016H46.7315V45.856H48.6515V48.544H44.0435V46.624H42.8915V49.696H44.8115V52.384H40.2035ZM36.3635 40.48V38.56H37.1315V40.48H36.3635ZM13.7075 42.784V42.016H15.2435V40.864H13.3235V38.56H14.0915V40.096H16.0115V42.784H13.7075ZM15.2435 46.624V44.704H14.0915V46.24H13.3235V43.936H16.0115V45.856H17.1635V44.32H17.9315V46.624H15.2435ZM38.2835 48.544V46.624H37.1315V48.16H36.3635V45.856H39.0515V47.776H40.2035V43.936H44.4275V44.704H40.9715V48.544H38.2835ZM48.2675 44.704V43.936H52.1075V44.704H48.2675ZM34.4435 46.24V44.32H35.2115V46.24H34.4435ZM45.9635 52.384V49.696H48.2675V50.464H46.7315V51.616H49.8035V45.856H52.4915V52H51.7235V46.624H50.5715V52.384H45.9635ZM17.1635 52.384V48.544H16.0115V50.464H13.3235V48.16H14.0915V49.696H15.2435V47.776H17.9315V51.616H19.0835V49.696H23.6915V51.616H24.8435V49.696H27.1475V50.464H25.6115V52.384H22.9235V50.464H19.8515V52.384H17.1635ZM13.7075 52.384V51.616H15.6275V52.384H13.7075ZM59.0985 44.704V42.016H63.7065V43.936H64.8585V40.864H61.0185V36.256H63.7065V38.176H64.8585V36.256H66.7785V32.416H70.6185V30.496H72.5385V24.736H74.4585V22.816H76.3785V15.904H74.4585V13.984H72.5385V11.296H76.3785V7.456H79.0665V9.376H82.1385V7.456H86.3625V8.224H82.9065V10.144H78.2985V8.224H77.1465V12.064H73.3065V13.216H75.2265V15.136H77.1465V23.584H75.2265V25.504H73.3065V31.264H71.3865V33.184H67.5465V37.024H65.6265V38.944H62.9385V37.024H61.7865V40.096H65.6265V44.704H62.9385V42.784H59.8665V43.936H61.4025V44.704H59.0985ZM72.5385 10.144V7.456H74.8425V8.224H73.3065V9.376H74.8425V10.144H72.5385ZM89.8185 11.68V10.144H87.8985V7.84H88.6665V9.376H90.5865V11.68H89.8185ZM76.3785 29.344V26.656H78.2985V20.896H80.2185V19.744H78.2985V17.056H82.1385V11.296H84.0585V9.376H86.3625V10.144H84.8265V12.064H82.9065V17.824H79.0665V18.976H80.9865V21.664H79.0665V27.424H77.1465V28.576H78.6825V29.344H76.3785ZM62.9385 33.184V30.88H63.7065V32.416H64.8585V30.496H66.7785V27.424H64.8585V24.736H70.6185V20.896H74.4585V19.744H70.6185V9.76H71.3865V18.976H75.2265V21.664H71.3865V25.504H65.6265V26.656H67.5465V31.264H65.6265V33.184H62.9385ZM84.0585 15.904V13.216H85.9785V11.296H88.2825V12.064H86.7465V13.984H84.8265V15.136H87.8985V13.216H92.1225V13.984H88.6665V15.904H84.0585ZM78.2985 15.904V11.68H79.0665V15.136H80.2185V11.68H80.9865V15.904H78.2985ZM93.6585 34.72V33.184H91.7385V28.576H95.5785V25.504H93.6585V23.584H92.5065V27.424H90.5865V31.264H87.8985V27.424H85.9785V18.976H89.8185V15.136H92.5065V18.976H94.4265V21.664H90.5865V23.584H88.6665V24.736H90.2025V25.504H87.8985V22.816H89.8185V20.896H93.6585V19.744H91.7385V15.904H90.5865V19.744H86.7465V26.656H88.6665V30.496H89.8185V26.656H91.7385V22.816H94.4265V24.736H96.3465V29.344H92.5065V32.416H94.4265V34.72H93.6585ZM72.5385 17.824V15.52H73.3065V17.056H74.8425V17.824H72.5385ZM66.7785 23.584V20.896H68.6985V15.52H69.4665V21.664H67.5465V22.816H69.0825V23.584H66.7785ZM84.4425 17.824V17.056H88.2825V17.824H84.4425ZM82.1385 21.664V18.976H84.4425V19.744H82.9065V20.896H84.4425V21.664H82.1385ZM84.0585 33.184V30.88H84.8265V32.416H85.9785V29.344H84.0585V23.584H82.5225V22.816H84.8265V28.576H86.7465V33.184H84.0585ZM82.1385 28.96V25.12H82.9065V28.96H82.1385ZM68.6985 29.344V26.656H71.0025V27.424H69.4665V28.576H71.0025V29.344H68.6985ZM74.4585 31.264V27.04H75.2265V30.496H78.6825V31.264H74.4585ZM95.5785 35.104V32.416H97.4985V31.264H94.0425V30.496H98.2665V33.184H96.3465V34.336H97.8825V35.104H95.5785ZM68.6985 36.64V34.336H72.5385V32.416H74.8425V33.184H73.3065V35.104H69.4665V36.64H68.6985ZM89.8185 34.72V33.184H88.2825V32.416H90.5865V34.72H89.8185ZM76.3785 36.64V32.8H77.1465V36.64H76.3785ZM63.3225 35.104V34.336H65.2425V35.104H63.3225ZM80.2185 46.624V40.096H82.1385V35.104H80.9865V38.56H80.2185V34.336H82.9065V40.864H80.9865V45.856H84.0585V44.704H82.1385V42.016H84.0585V38.176H85.9785V37.024H84.0585V34.336H88.6665V36.256H90.5865V42.016H92.5065V43.936H93.6585V38.944H92.5065V40.48H91.7385V38.176H94.4265V44.704H91.7385V42.784H89.8185V37.024H87.8985V35.104H84.8265V36.256H86.7465V38.944H84.8265V42.784H82.9065V43.936H84.8265V46.624H80.2185ZM95.5785 40.864V38.56H96.3465V40.096H97.4985V37.024H91.7385V34.72H92.5065V36.256H98.2665V40.864H95.5785ZM57.1785 52.384V47.776H59.0985V45.856H66.7785V43.936H69.4665V49.696H72.5385V42.016H74.4585V40.864H66.7785V38.176H70.6185V36.256H75.2265V38.176H78.2985V36.64H79.0665V38.944H74.4585V37.024H71.3865V38.944H67.5465V40.096H75.2265V42.784H73.3065V50.464H68.6985V44.704H67.5465V46.624H59.8665V48.544H57.9465V51.616H59.0985V49.696H61.0185V47.776H63.7065V49.696H67.5465V52.384H61.4025V51.616H66.7785V50.464H62.9385V48.544H61.7865V50.464H59.8665V52.384H57.1785ZM99.4185 44.32V36.64H100.187V44.32H99.4185ZM85.9785 42.784V40.096H87.8985V38.56H88.6665V40.864H86.7465V42.016H88.2825V42.784H85.9785ZM76.3785 46.624V44.32H77.1465V45.856H78.2985V40.864H77.1465V42.4H76.3785V40.096H79.0665V46.624H76.3785ZM67.1625 42.784V42.016H69.0825V42.784H67.1625ZM94.0425 52.384V51.616H95.5785V42.4H96.3465V52.384H94.0425ZM97.4985 44.32V42.4H98.2665V44.32H97.4985ZM101.339 44.32V42.4H102.107V44.32H101.339ZM70.6185 48.16V42.4H71.3865V48.16H70.6185ZM88.2825 44.704V43.936H90.2025V44.704H88.2825ZM74.4585 46.24V44.32H75.2265V46.24H74.4585ZM87.8985 48.16V46.624H85.9785V44.32H86.7465V45.856H88.6665V48.16H87.8985ZM90.2025 46.624V45.856H92.1225V46.624H90.2025ZM101.339 52.384V50.464H97.8825V49.696H102.107V51.616H103.259V46.624H98.2665V47.776H101.723V48.544H97.4985V45.856H104.027V52.384H101.339ZM65.2425 48.544V47.776H67.1625V48.544H65.2425ZM89.8185 52.384V47.776H94.4265V50.08H93.6585V48.544H90.5865V51.616H91.7385V50.08H92.5065V52.384H89.8185ZM69.0825 52.384V51.616H71.0025V52.384H69.0825ZM97.8825 52.384V51.616H99.8025V52.384H97.8825ZM109.011 31.264V22.816H110.931V19.744H109.011V17.056H110.931V12.064H109.011V9.376H113.619V15.136H114.771V13.216H116.691V9.376H118.611V7.456H122.835V8.224H119.379V10.144H117.459V13.984H115.539V15.904H112.851V10.144H109.779V11.296H111.699V17.824H109.779V18.976H111.699V23.584H109.779V30.496H112.851V29.344H110.931V26.656H112.851V23.2H113.619V27.424H111.699V28.576H113.619V31.264H109.011ZM111.315 8.224V7.456H117.075V8.224H111.315ZM114.771 35.104V30.496H116.691V29.344H114.771V21.664H112.851V17.056H116.691V15.136H120.531V13.984H118.611V11.296H125.139V13.216H130.131V11.296H132.051V9.376H137.811V8.224H125.139V10.144H120.915V9.376H124.371V7.456H138.579V10.144H132.819V12.064H130.899V13.984H124.371V12.064H119.379V13.216H121.299V15.904H117.459V17.824H113.619V20.896H115.539V28.576H117.459V31.264H115.539V34.336H116.691V32.416H122.451V25.504H121.299V27.424H119.379V30.496H120.531V28.96H121.299V31.264H118.611V26.656H120.531V24.736H123.219V33.184H117.459V35.104H114.771ZM140.115 8.224V7.456H142.035V8.224H140.115ZM126.291 12.064V9.76H127.059V11.296H128.211V9.376H130.515V10.144H128.979V12.064H126.291ZM141.651 19.744V17.056H143.571V10.144H140.499V12.064H134.739V13.216H136.275V13.984H133.971V11.296H139.731V9.376H144.339V17.824H142.419V18.976H143.955V19.744H141.651ZM114.771 11.68V9.76H115.539V11.68H114.771ZM138.195 13.984V13.216H140.115V13.984H138.195ZM136.275 17.824V17.056H139.731V15.136H141.651V13.6H142.419V15.904H140.499V17.824H136.275ZM109.011 15.52V13.6H109.779V15.52H109.011ZM116.691 25.504V23.2H117.459V24.736H118.611V17.056H121.299V20.896H132.051V18.976H133.971V17.824H132.051V15.904H128.979V17.824H126.291V15.904H125.139V19.744H122.451V13.6H123.219V18.976H124.371V15.136H127.059V17.056H128.211V15.136H132.819V17.056H134.739V19.744H132.819V21.664H120.531V17.824H119.379V25.504H116.691ZM134.355 15.904V15.136H138.195V15.904H134.355ZM126.675 19.744V18.976H130.131V17.44H130.899V19.744H126.675ZM134.355 21.664V20.896H135.891V18.976H140.499V21.664H138.195V20.896H139.731V19.744H136.659V21.664H134.355ZM116.691 21.28V19.744H115.155V18.976H117.459V21.28H116.691ZM120.915 23.584V22.816H122.835V23.584H120.915ZM128.211 38.944V36.256H130.131V34.336H132.051V32.8H132.819V35.104H130.899V37.024H128.979V38.176H132.051V36.256H133.971V34.336H139.731V27.424H138.579V29.344H133.971V27.424H132.819V29.344H130.131V27.424H128.979V30.496H130.899V33.184H128.979V35.104H126.291V29.344H124.371V26.656H126.675V27.424H125.139V28.576H127.059V34.336H128.211V32.416H130.131V31.264H128.211V26.656H130.899V28.576H132.051V26.656H134.739V28.576H137.811V26.656H140.499V35.104H134.739V37.024H132.819V38.944H128.211ZM135.891 38.944V36.256H138.195V37.024H136.659V38.176H139.731V36.256H141.651V27.04H142.419V37.024H140.499V38.944H135.891ZM133.971 33.184V31.264H132.435V30.496H134.739V32.416H135.891V30.496H138.579V32.8H137.811V31.264H136.659V33.184H133.971ZM124.371 38.56V37.024H122.451V34.336H124.371V30.88H125.139V35.104H123.219V36.256H125.139V38.56H124.371ZM109.011 38.944V32.416H113.619V34.72H112.851V33.184H109.779V38.176H112.851V37.024H110.931V34.72H111.699V36.256H113.619V38.944H109.011ZM114.771 40.864V36.256H120.531V35.104H118.995V34.336H121.299V37.024H115.539V40.096H116.691V38.176H123.219V40.48H122.451V38.944H117.459V40.864H114.771ZM126.291 38.56V36.64H127.059V38.56H126.291ZM109.011 44.32V40.48H109.779V44.32H109.011ZM120.915 48.544V47.776H122.451V46.624H118.611V42.784H113.619V44.704H110.931V40.48H111.699V43.936H112.851V42.016H119.379V45.856H123.219V48.544H120.915ZM120.915 44.704V43.936H122.451V42.784H120.531V40.48H121.299V42.016H123.219V44.704H120.915ZM114.771 46.624V44.32H115.539V45.856H116.691V44.32H117.459V46.624H114.771ZM109.011 52.384V50.08H109.779V51.616H110.931V48.544H109.011V45.856H113.619V47.776H115.539V49.696H117.459V52.384H115.155V51.616H116.691V50.464H114.771V48.544H112.851V46.624H109.779V47.776H111.699V52.384H109.011ZM118.611 52.384V48.16H119.379V51.616H120.531V49.696H123.219V52H122.451V50.464H121.299V52.384H118.611ZM112.851 52V50.08H113.619V52H112.851ZM146.474 44.704V42.016H151.082V43.936H152.234V40.864H148.394V36.256H151.082V38.176H152.234V36.256H154.154V32.416H157.994V30.496H159.914V24.736H161.833V22.816H163.753V15.904H161.833V13.984H159.914V11.296H163.753V7.456H166.442V9.376H169.514V7.456H173.738V8.224H170.282V10.144H165.674V8.224H164.522V12.064H160.682V13.216H162.602V15.136H164.522V23.584H162.602V25.504H160.682V31.264H158.762V33.184H154.922V37.024H153.002V38.944H150.314V37.024H149.161V40.096H153.002V44.704H150.314V42.784H147.242V43.936H148.778V44.704H146.474ZM159.914 10.144V7.456H162.218V8.224H160.682V9.376H162.218V10.144H159.914ZM177.194 11.68V10.144H175.274V7.84H176.042V9.376H177.962V11.68H177.194ZM163.753 29.344V26.656H165.674V20.896H167.594V19.744H165.674V17.056H169.514V11.296H171.434V9.376H173.738V10.144H172.202V12.064H170.282V17.824H166.442V18.976H168.362V21.664H166.442V27.424H164.522V28.576H166.058V29.344H163.753ZM150.314 33.184V30.88H151.082V32.416H152.234V30.496H154.154V27.424H152.234V24.736H157.994V20.896H161.833V19.744H157.994V9.76H158.762V18.976H162.602V21.664H158.762V25.504H153.002V26.656H154.922V31.264H153.002V33.184H150.314ZM171.434 15.904V13.216H173.354V11.296H175.658V12.064H174.122V13.984H172.202V15.136H175.274V13.216H179.498V13.984H176.042V15.904H171.434ZM165.674 15.904V11.68H166.442V15.136H167.594V11.68H168.362V15.904H165.674ZM181.034 34.72V33.184H179.114V28.576H182.954V25.504H181.034V23.584H179.882V27.424H177.962V31.264H175.274V27.424H173.354V18.976H177.194V15.136H179.882V18.976H181.802V21.664H177.962V23.584H176.042V24.736H177.578V25.504H175.274V22.816H177.194V20.896H181.034V19.744H179.114V15.904H177.962V19.744H174.122V26.656H176.042V30.496H177.194V26.656H179.114V22.816H181.802V24.736H183.722V29.344H179.882V32.416H181.802V34.72H181.034ZM159.914 17.824V15.52H160.682V17.056H162.218V17.824H159.914ZM154.154 23.584V20.896H156.074V15.52H156.842V21.664H154.922V22.816H156.458V23.584H154.154ZM171.818 17.824V17.056H175.658V17.824H171.818ZM169.514 21.664V18.976H171.818V19.744H170.282V20.896H171.818V21.664H169.514ZM171.434 33.184V30.88H172.202V32.416H173.354V29.344H171.434V23.584H169.898V22.816H172.202V28.576H174.122V33.184H171.434ZM169.514 28.96V25.12H170.282V28.96H169.514ZM156.074 29.344V26.656H158.378V27.424H156.842V28.576H158.378V29.344H156.074ZM161.833 31.264V27.04H162.602V30.496H166.058V31.264H161.833ZM182.954 35.104V32.416H184.874V31.264H181.418V30.496H185.642V33.184H183.722V34.336H185.258V35.104H182.954ZM156.074 36.64V34.336H159.914V32.416H162.218V33.184H160.682V35.104H156.842V36.64H156.074ZM177.194 34.72V33.184H175.658V32.416H177.962V34.72H177.194ZM163.753 36.64V32.8H164.522V36.64H163.753ZM150.698 35.104V34.336H152.618V35.104H150.698ZM167.594 46.624V40.096H169.514V35.104H168.362V38.56H167.594V34.336H170.282V40.864H168.362V45.856H171.434V44.704H169.514V42.016H171.434V38.176H173.354V37.024H171.434V34.336H176.042V36.256H177.962V42.016H179.882V43.936H181.034V38.944H179.882V40.48H179.114V38.176H181.802V44.704H179.114V42.784H177.194V37.024H175.274V35.104H172.202V36.256H174.122V38.944H172.202V42.784H170.282V43.936H172.202V46.624H167.594ZM182.954 40.864V38.56H183.722V40.096H184.874V37.024H179.114V34.72H179.882V36.256H185.642V40.864H182.954ZM144.553 52.384V47.776H146.474V45.856H154.154V43.936H156.842V49.696H159.914V42.016H161.833V40.864H154.154V38.176H157.994V36.256H162.602V38.176H165.674V36.64H166.442V38.944H161.833V37.024H158.762V38.944H154.922V40.096H162.602V42.784H160.682V50.464H156.074V44.704H154.922V46.624H147.242V48.544H145.322V51.616H146.474V49.696H148.394V47.776H151.082V49.696H154.922V52.384H148.778V51.616H154.154V50.464H150.314V48.544H149.161V50.464H147.242V52.384H144.553ZM186.794 44.32V36.64H187.562V44.32H186.794ZM173.354 42.784V40.096H175.274V38.56H176.042V40.864H174.122V42.016H175.658V42.784H173.354ZM163.753 46.624V44.32H164.522V45.856H165.674V40.864H164.522V42.4H163.753V40.096H166.442V46.624H163.753ZM154.538 42.784V42.016H156.458V42.784H154.538ZM181.418 52.384V51.616H182.954V42.4H183.722V52.384H181.418ZM184.874 44.32V42.4H185.642V44.32H184.874ZM188.714 44.32V42.4H189.482V44.32H188.714ZM157.994 48.16V42.4H158.762V48.16H157.994ZM175.658 44.704V43.936H177.578V44.704H175.658ZM161.833 46.24V44.32H162.602V46.24H161.833ZM175.274 48.16V46.624H173.354V44.32H174.122V45.856H176.042V48.16H175.274ZM177.578 46.624V45.856H179.498V46.624H177.578ZM188.714 52.384V50.464H185.258V49.696H189.482V51.616H190.634V46.624H185.642V47.776H189.098V48.544H184.874V45.856H191.402V52.384H188.714ZM152.618 48.544V47.776H154.538V48.544H152.618ZM177.194 52.384V47.776H181.802V50.08H181.034V48.544H177.962V51.616H179.114V50.08H179.882V52.384H177.194ZM156.458 52.384V51.616H158.378V52.384H156.458ZM185.258 52.384V51.616H187.178V52.384H185.258ZM206.771 31.52V25.376H208.691V22.304H206.771V20.384H204.851V17.696H208.691V13.856H211.378V19.616H219.059V21.536H222.131V20.384H220.211V18.464H214.451V16.544H212.531V12.704H205.619V13.856H207.539V16.544H202.931V14.624H201.01V11.936H202.931V10.016H208.691V8.864H205.235V8.096H209.458V10.784H203.699V12.704H201.779V13.856H203.699V15.776H206.771V14.624H204.851V11.936H213.299V15.776H215.219V17.696H220.979V19.616H222.899V22.304H218.291V20.384H210.611V14.624H209.458V18.464H205.619V19.616H207.539V21.536H209.458V26.144H207.539V31.52H206.771ZM210.611 10.784V8.48H211.378V10.016H212.531V8.096H215.219V10.4H214.451V8.864H213.299V10.784H210.611ZM222.131 18.08V13.856H224.051V10.784H222.899V12.704H220.211V8.864H219.059V10.784H216.371V8.48H217.139V10.016H218.291V8.096H220.979V11.936H222.131V10.016H224.819V14.624H222.899V18.08H222.131ZM225.971 12.704V10.4H226.739V11.936H228.275V12.704H225.971ZM214.835 14.624V13.856H216.371V12.704H214.835V11.936H217.139V14.624H214.835ZM197.555 14.624V13.856H199.091V12.32H199.859V14.624H197.555ZM216.755 16.544V15.776H220.211V14.624H218.291V12.32H219.059V13.856H220.979V16.544H216.755ZM229.811 16.544V14.624H226.354V13.856H230.579V15.776H232.115V16.544H229.811ZM224.051 22.304V19.616H225.971V18.464H224.051V15.776H228.275V16.544H224.819V17.696H226.739V20.384H224.819V21.536H229.811V18.464H228.659V20H227.891V17.696H230.579V22.304H224.051ZM201.01 24.224V22.304H199.091V18.464H195.251V15.776H201.395V16.544H196.019V17.696H199.859V21.536H201.779V23.456H202.931V21.536H205.235V22.304H203.699V24.224H201.01ZM201.01 20.384V17.696H203.315V18.464H201.779V19.616H203.315V20.384H201.01ZM231.731 21.92V18.08H232.499V21.92H231.731ZM193.331 24.224V21.536H197.171V20.384H193.715V19.616H197.939V22.304H194.099V23.456H197.555V24.224H193.331ZM201.01 33.824V31.904H197.171V25.76H197.939V31.136H201.779V33.056H202.931V29.216H204.851V28.064H202.931V25.376H204.851V23.456H207.155V24.224H205.619V26.144H203.699V27.296H205.619V29.984H203.699V33.824H201.01ZM222.131 29.984V26.144H219.059V28.064H216.371V26.144H214.451V24.224H212.915V23.456H215.219V25.376H217.139V27.296H218.291V25.376H222.899V29.216H224.051V25.76H224.819V29.984H222.131ZM199.091 27.68V23.84H199.859V27.68H199.091ZM210.611 26.144V23.84H211.378V25.376H212.915V26.144H210.611ZM195.251 29.6V25.76H196.019V29.6H195.251ZM199.475 29.984V29.216H201.01V25.76H201.779V29.984H199.475ZM225.971 37.664V27.296H228.659V29.6H227.891V28.064H226.739V36.896H229.811V33.824H228.659V35.36H227.891V33.056H230.579V37.664H225.971ZM208.691 31.904V27.296H211.378V29.216H212.531V27.296H214.835V28.064H213.299V29.984H210.611V28.064H209.458V31.136H214.451V29.6H215.219V31.904H208.691ZM220.211 41.504V38.816H222.131V37.664H220.211V33.824H215.219V34.976H217.139V37.664H214.835V36.896H216.371V35.744H214.451V33.056H220.979V36.896H222.899V39.584H220.979V40.736H224.051V35.744H222.131V33.056H224.051V31.904H216.371V29.216H220.211V27.68H220.979V29.984H217.139V31.136H224.819V33.824H222.899V34.976H224.819V41.504H220.211ZM228.275 31.904V31.136H229.811V29.6H230.579V31.904H228.275ZM231.731 35.744V29.6H232.499V34.976H233.651V33.44H234.419V35.744H231.731ZM204.851 35.744V31.52H205.619V34.976H206.771V33.056H209.458V35.36H208.691V33.824H207.539V35.744H204.851ZM210.611 35.744V33.056H212.915V33.824H211.378V34.976H212.915V35.744H210.611ZM218.291 39.2V35.36H219.059V39.2H218.291ZM222.131 52.64V50.336H224.051V44.576H227.891V42.656H230.579V44.576H231.731V36.896H234.419V43.04H233.651V37.664H232.499V45.344H229.811V43.424H228.659V45.344H224.819V51.104H222.899V52.64H222.131ZM197.171 47.264V45.344H193.331V38.816H199.475V39.584H194.099V44.576H197.939V46.496H199.091V44.576H202.931V43.424H199.091V40.736H201.01V38.816H205.619V40.736H207.539V42.656H212.531V41.12H213.299V43.424H206.771V41.504H204.851V39.584H201.779V41.504H199.859V42.656H203.699V45.344H199.859V47.264H197.171ZM208.691 41.504V39.2H209.458V40.736H210.995V41.504H208.691ZM218.675 49.184V48.416H222.131V42.656H225.971V40.736H227.891V39.2H228.659V41.504H226.739V43.424H222.899V49.184H218.675ZM229.811 41.12V39.2H230.579V41.12H229.811ZM195.251 43.04V40.736H197.939V43.04H197.171V41.504H196.019V43.04H195.251ZM214.451 53.024V48.416H216.371V46.496H218.291V44.576H220.211V43.424H218.291V41.504H217.139V43.424H214.451V41.12H215.219V42.656H216.371V40.736H219.059V42.656H220.979V45.344H219.059V47.264H217.139V49.184H215.219V52.256H216.371V50.336H220.979V53.024H218.675V52.256H220.211V51.104H217.139V53.024H214.451ZM197.555 49.184V48.416H201.01V46.496H204.851V43.04H205.619V47.264H201.779V49.184H197.555ZM204.851 53.024V51.104H199.475V50.336H205.619V52.256H208.691V50.336H211.378V52.256H212.531V47.264H210.611V44.576H215.219V46.88H214.451V45.344H211.378V46.496H213.299V53.024H210.611V51.104H209.458V53.024H204.851ZM206.771 50.72V46.496H208.691V45.344H207.155V44.576H209.458V47.264H207.539V50.72H206.771ZM226.354 49.184V48.416H227.891V46.496H230.579V48.8H229.811V47.264H228.659V49.184H226.354ZM203.315 49.184V48.416H205.235V49.184H203.315ZM209.075 49.184V48.416H210.995V49.184H209.075ZM241.668 39.456V35.616H239.748V32.928H241.668V29.088H246.276V33.696H244.356V36.768H245.892V37.536H243.588V32.928H245.508V29.856H242.436V33.696H240.516V34.848H242.436V38.688H251.268V36.768H253.956V38.688H258.948V37.536H255.108V35.616H253.188V29.088H257.028V27.936H250.116V29.856H247.428V27.936H240.516V31.392H239.748V27.168H248.196V29.088H249.348V27.168H257.796V29.856H253.956V34.848H255.876V36.768H259.716V39.456H253.188V37.536H252.036V39.456H241.668ZM258.948 31.392V27.168H261.252V27.936H259.716V31.392H258.948ZM260.868 39.456V36.768H262.788V29.856H261.636V33.696H255.108V31.008H257.412V31.776H255.876V32.928H260.868V29.088H263.556V37.536H261.636V38.688H263.172V39.456H260.868ZM249.348 35.616V33.696H247.428V31.008H249.732V31.776H248.196V32.928H250.116V34.848H251.268V29.472H252.036V35.616H249.348ZM245.892 35.616V34.848H247.812V35.616H245.892ZM257.412 35.616V34.848H261.252V35.616H257.412ZM247.812 37.536V36.768H249.732V37.536H247.812ZM239.748 39.072V37.152H240.516V39.072H239.748ZM270.449 25.504V22.816H272.369V21.664H270.449V17.056H272.369V15.904H270.449V9.76H271.217V15.136H273.137V17.824H271.217V20.896H273.137V23.584H271.217V24.736H274.289V17.056H276.209V12.064H272.369V9.376H274.289V7.456H280.817V9.376H281.969V7.456H284.657V11.296H286.577V13.216H287.729V9.376H289.649V7.456H294.257V9.376H300.017V12.064H291.953V11.296H299.249V10.144H293.489V8.224H290.417V10.144H288.497V13.984H285.809V12.064H283.889V8.224H282.737V10.144H280.049V8.224H275.057V10.144H273.137V11.296H276.977V17.824H275.057V25.504H270.449ZM285.809 9.76V7.456H288.113V8.224H286.577V9.76H285.809ZM276.593 10.144V9.376H278.513V10.144H276.593ZM291.569 29.344V26.656H293.489V24.736H297.329V23.584H293.489V19.744H291.569V17.824H285.809V15.904H278.129V13.216H281.969V12.064H280.433V11.296H282.737V13.984H278.897V15.136H286.577V17.056H292.337V18.976H294.257V22.816H298.097V25.504H294.257V27.424H292.337V28.576H297.329V27.424H295.793V26.656H298.097V29.344H291.569ZM301.553 12.064V11.296H303.472V12.064H301.553ZM288.113 15.904V15.136H291.569V13.984H289.649V11.68H290.417V13.216H292.337V15.904H288.113ZM274.289 15.52V13.984H272.753V13.216H275.057V15.52H274.289ZM303.472 15.904V15.136H305.009V13.984H299.632V13.216H305.777V15.904H303.472ZM305.009 23.584V17.824H303.857V19.744H299.249V17.824H298.097V19.744H295.409V15.904H293.489V13.216H298.097V15.136H301.937V17.44H301.169V15.904H297.329V13.984H294.257V15.136H296.177V18.976H297.329V17.056H300.017V18.976H303.089V17.056H305.777V22.816H308.849V21.28H309.617V23.584H305.009ZM306.929 15.52V13.6H307.697V15.52H306.929ZM295.409 38.944V34.336H297.713V35.104H296.177V38.176H297.329V36.256H299.249V33.184H295.409V31.264H289.649V27.424H285.809V21.664H283.889V19.744H282.737V21.664H280.817V22.816H284.657V27.424H278.129V23.584H276.209V20.896H278.129V18.976H280.049V17.056H282.353V17.824H280.817V19.744H278.897V21.664H276.977V22.816H278.897V26.656H283.889V23.584H280.049V20.896H281.969V18.976H284.657V20.896H286.577V26.656H290.417V30.496H296.177V32.416H300.017V37.024H298.097V38.944H295.409ZM307.312 17.824V17.056H309.233V17.824H307.312ZM286.193 19.744V18.976H290.033V19.744H286.193ZM306.929 21.28V18.976H309.233V19.744H307.697V21.28H306.929ZM295.793 21.664V20.896H299.632V21.664H295.793ZM299.249 27.424V22.816H301.169V20.896H303.857V23.2H303.089V21.664H301.937V23.584H300.017V26.656H301.169V24.736H303.857V26.656H305.393V27.424H303.089V25.504H301.937V27.424H299.249ZM305.393 25.504V24.736H307.312V25.504H305.393ZM280.433 25.504V24.736H282.353V25.504H280.433ZM281.969 35.104V33.184H280.433V32.416H282.737V34.336H283.889V29.344H276.209V25.12H276.977V28.576H284.657V35.104H281.969ZM270.449 31.264V28.96H271.217V30.496H272.369V27.424H270.833V26.656H273.137V31.264H270.449ZM274.289 30.88V27.04H275.057V30.88H274.289ZM305.009 33.184V28.96H305.777V32.416H306.929V27.04H307.697V33.184H305.009ZM308.849 28.96V27.04H309.617V28.96H308.849ZM285.809 33.184V28.576H288.497V30.88H287.729V29.344H286.577V32.416H288.113V33.184H285.809ZM301.169 35.104V32.416H303.089V29.344H300.017V30.496H301.553V31.264H299.249V28.576H303.857V33.184H301.937V34.336H303.472V35.104H301.169ZM280.433 31.264V30.496H282.353V31.264H280.433ZM270.449 52.384V47.776H274.289V45.856H276.977V48.16H276.209V46.624H275.057V48.544H271.217V51.616H276.209V49.696H278.897V51.616H285.809V50.464H280.049V48.544H278.129V44.704H273.137V46.624H270.449V40.096H273.137V42.016H274.289V38.176H276.209V37.024H274.289V32.416H276.209V30.496H278.897V34.336H280.817V36.256H282.737V38.176H283.889V36.256H286.577V38.176H291.569V37.024H288.113V36.256H292.337V38.944H285.809V37.024H284.657V38.944H281.969V37.024H280.049V35.104H278.129V31.264H276.977V33.184H275.057V36.256H276.977V38.944H275.057V42.784H272.369V40.864H271.217V45.856H272.369V43.936H278.897V47.776H280.817V49.696H286.577V52.384H278.129V50.464H276.977V52.384H270.449ZM293.489 36.64V35.104H291.569V33.184H290.033V32.416H292.337V34.336H294.257V36.64H293.489ZM270.833 35.104V34.336H272.369V33.184H270.833V32.416H273.137V35.104H270.833ZM286.193 35.104V34.336H290.033V35.104H286.193ZM270.449 38.56V36.256H273.137V38.56H272.369V37.024H271.217V38.56H270.449ZM301.553 37.024V36.256H303.472V37.024H301.553ZM281.969 48.544V45.856H285.809V44.704H283.889V42.016H285.809V40.864H282.737V44.704H280.049V42.784H276.209V40.096H278.129V36.64H278.897V40.864H276.977V42.016H280.817V43.936H281.969V40.096H286.577V42.784H284.657V43.936H286.577V46.624H282.737V47.776H284.273V48.544H281.969ZM280.049 40.48V38.56H280.817V40.48H280.049ZM272.753 50.464V49.696H274.673V50.464H272.753ZM315.958 10.144V9.376H317.494V7.456H320.182V9.376H321.718V10.144H319.414V8.224H318.262V10.144H315.958ZM323.254 9.76V8.224H321.718V7.456H324.022V9.76H323.254ZM323.254 13.984V11.68H324.022V13.216H327.094V8.224H325.942V11.68H325.174V7.456H327.862V13.984H323.254ZM338.614 35.104V32.416H340.534V31.264H338.614V28.576H340.534V27.424H338.614V20.896H341.302V22.816H343.222V24.736H344.374V20.896H346.294V19.744H340.534V17.824H336.694V15.136H345.142V17.056H346.294V13.984H342.454V10.144H336.694V8.224H329.782V13.216H330.934V11.296H333.622V13.216H335.542V17.44H334.774V13.984H332.854V12.064H331.702V13.984H329.014V7.456H337.462V9.376H343.222V13.216H347.062V17.824H344.374V15.904H337.462V17.056H341.302V18.976H347.062V21.664H345.142V25.504H342.454V23.584H340.534V21.664H339.382V26.656H341.302V29.344H339.382V30.496H341.302V33.184H339.382V34.336H342.454V32.416H345.142V34.72H344.374V33.184H343.222V35.104H338.614ZM348.214 19.744V17.44H348.982V18.976H353.974V17.824H350.134V15.904H348.214V12.064H344.374V9.376H346.678V10.144H345.142V11.296H348.982V15.136H350.902V17.056H354.742V19.744H348.214ZM331.318 10.144V9.376H333.238V10.144H331.318ZM336.694 13.984V12.064H334.774V9.76H335.542V11.296H337.462V13.216H338.614V11.296H341.302V13.6H340.534V12.064H339.382V13.984H336.694ZM329.014 31.264V29.344H327.094V25.504H325.942V27.424H323.254V17.824H322.102V21.664H319.414V19.744H318.262V23.584H315.574V11.296H322.102V13.984H320.182V17.824H317.494V13.6H318.262V17.056H319.414V13.216H321.334V12.064H316.342V22.816H317.494V18.976H320.182V20.896H321.334V17.056H324.022V26.656H325.174V24.736H327.862V28.576H329.782V30.496H330.934V27.424H329.014V24.736H330.934V19.744H329.782V21.664H327.094V19.36H327.862V20.896H329.014V18.976H331.702V25.504H329.782V26.656H331.702V31.264H329.014ZM327.478 17.824V17.056H329.014V15.136H333.622V17.824H331.318V17.056H332.854V15.904H329.782V17.824H327.478ZM325.174 21.28V15.904H321.718V15.136H325.942V21.28H325.174ZM333.238 19.744V18.976H338.998V19.744H333.238ZM342.454 31.264V26.656H346.294V24.736H353.974V23.584H352.054V21.664H348.982V22.816H350.518V23.584H348.214V20.896H352.822V22.816H354.742V25.504H347.062V27.424H343.222V30.496H346.294V29.344H344.757V28.576H347.062V31.264H342.454ZM325.558 23.584V22.816H329.398V23.584H325.558ZM315.574 27.424V24.736H319.414V22.816H322.102V25.12H321.334V23.584H320.182V25.504H316.342V26.656H321.718V27.424H315.574ZM350.134 33.184V30.496H352.054V28.576H353.974V27.424H350.902V29.344H348.597V28.576H350.134V26.656H354.742V29.344H352.822V31.264H350.902V32.416H352.438V33.184H350.134ZM334.774 31.264V28.96H335.542V30.496H336.694V27.424H333.622V28.96H332.854V26.656H337.462V31.264H334.774ZM329.014 52V49.696H330.934V46.624H329.782V48.544H327.094V43.936H330.934V42.784H327.094V38.944H325.174V37.024H321.334V31.264H318.262V33.184H315.574V28.576H325.942V33.184H323.254V30.88H324.022V32.416H325.174V29.344H316.342V32.416H317.494V30.496H322.102V36.256H325.942V38.176H327.862V42.016H331.702V44.704H327.862V47.776H329.014V45.856H331.702V50.464H329.782V52H329.014ZM327.094 36.64V30.88H327.862V36.64H327.094ZM346.678 33.184V32.416H348.214V30.88H348.982V33.184H346.678ZM329.398 33.184V32.416H331.318V33.184H329.398ZM334.774 35.104V33.184H333.238V32.416H335.542V34.336H336.694V32.8H337.462V35.104H334.774ZM315.574 40.864V34.336H318.262V38.176H319.414V32.8H320.182V38.944H317.494V35.104H316.342V40.096H321.334V38.176H323.638V38.944H322.102V40.864H315.574ZM352.054 50.464V48.544H342.454V45.856H350.134V44.704H348.214V42.016H350.134V40.864H348.214V35.104H347.062V37.024H341.302V40.096H343.222V42.016H344.374V40.096H346.678V40.864H345.142V42.784H342.454V40.864H340.534V36.256H346.294V34.336H348.982V40.096H350.902V42.784H348.982V43.936H350.902V46.624H343.222V47.776H352.822V49.696H353.974V48.16H354.742V50.464H352.054ZM330.934 38.944V36.64H331.702V38.176H332.854V35.104H329.782V36.64H329.014V34.336H333.622V38.944H330.934ZM323.638 35.104V34.336H325.558V35.104H323.638ZM336.694 46.624V42.784H334.774V40.48H335.542V42.016H337.462V45.856H338.614V40.864H336.694V38.176H338.614V37.024H335.542V38.56H334.774V36.256H339.382V38.944H337.462V40.096H339.382V46.624H336.694ZM342.838 38.944V38.176H346.678V38.944H342.838ZM329.014 40.48V38.56H329.782V40.48H329.014ZM323.254 52.384V46.624H321.718V45.856H324.022V51.616H325.174V40.864H324.022V44.704H320.182V47.776H322.102V50.08H321.334V48.544H319.414V43.936H323.254V40.096H325.942V52.384H323.254ZM315.958 42.784V42.016H321.718V42.784H315.958ZM315.574 46.24V43.936H318.262V46.24H317.494V44.704H316.342V46.24H315.574ZM340.534 52.384V50.464H338.614V47.776H340.534V43.936H346.678V44.704H341.302V48.544H339.382V49.696H341.302V51.616H348.214V50.464H342.838V49.696H348.982V52.384H340.534ZM352.054 46.24V44.32H352.822V46.24H352.054ZM317.494 52.384V50.464H315.574V48.16H316.342V49.696H318.262V51.616H321.718V52.384H317.494ZM327.094 52V50.08H327.862V52H327.094ZM350.134 52V50.08H350.902V52H350.134ZM352.438 52.384V51.616H355.894V50.08H356.662V52.384H352.438ZM372.073 8.864V8.096H387.433V8.864H372.073ZM368.233 10.784V10.016H370.153V10.784H368.233ZM369.769 20V17.696H377.449V13.856H382.057V15.776H383.209V12.704H381.289V10.784H380.137V12.704H377.449V10.784H372.457V12.704H370.537V15.776H373.609V14.624H372.073V13.856H374.377V16.544H369.769V11.936H371.689V10.016H378.217V11.936H379.369V10.016H382.057V11.936H383.977V16.544H381.289V14.624H378.217V18.464H370.537V20H369.769ZM392.809 20.384V15.776H394.729V14.624H390.889V12.704H387.049V10.784H385.897V12.32H385.129V10.016H387.817V11.936H391.657V13.856H395.497V16.544H393.576V19.616H398.569V14.624H396.649V12.704H392.809V10.784H389.353V10.016H393.576V11.936H397.417V13.856H399.337V20.384H392.809ZM373.993 12.704V11.936H375.913V12.704H373.993ZM362.089 18.08V15.776H364.009V13.856H365.929V11.936H368.617V16.544H366.312V15.776H367.849V12.704H366.697V14.624H364.777V16.544H362.857V18.08H362.089ZM385.129 28.064V20.384H383.209V17.696H385.129V13.856H387.817V15.776H389.737V17.696H391.657V20.384H387.049V18.08H387.817V19.616H390.889V18.464H388.969V16.544H387.049V14.624H385.897V18.464H383.977V19.616H385.897V27.296H387.049V21.536H389.353V22.304H387.817V28.064H385.129ZM375.529 16.16V14.24H376.297V16.16H375.529ZM379.753 20.384V19.616H381.289V18.464H379.369V16.16H380.137V17.696H382.057V20.384H379.753ZM396.649 18.08V16.16H397.417V18.08H396.649ZM364.009 28.064V26.144H360.169V21.536H362.089V19.616H364.009V17.696H368.617V20.384H366.697V22.304H364.777V23.456H368.233V24.224H364.009V21.536H365.929V19.616H367.849V18.464H364.777V20.384H362.857V22.304H360.937V25.376H364.777V27.296H365.929V25.376H369.769V23.456H375.529V21.92H376.297V24.224H370.537V26.144H366.697V28.064H364.009ZM400.489 20V18.08H401.257V20H400.489ZM371.689 22.304V19.616H377.833V20.384H372.457V21.536H373.993V22.304H371.689ZM368.233 22.304V21.536H370.153V22.304H368.233ZM392.809 25.76V22.304H391.273V21.536H393.576V25.76H392.809ZM398.569 25.76V24.224H394.729V21.536H398.953V22.304H395.497V23.456H399.337V25.76H398.569ZM400.489 28.064V21.92H401.257V27.296H402.409V23.84H403.177V28.064H400.489ZM392.809 37.664V34.976H396.649V33.824H390.889V28.064H388.969V23.456H391.657V25.76H390.889V24.224H389.737V27.296H391.657V33.056H397.417V35.744H393.576V36.896H398.569V34.976H400.873V35.744H399.337V37.664H392.809ZM373.609 33.824V29.984H370.537V31.136H372.073V31.904H369.769V29.216H374.377V33.056H375.529V26.144H373.993V25.376H376.297V33.824H373.609ZM398.953 39.584V38.816H400.489V36.896H402.409V33.824H398.569V31.136H400.489V29.984H398.569V28.064H396.649V26.144H395.497V28.064H393.576V31.136H396.649V29.984H395.113V29.216H397.417V31.904H392.809V27.296H394.729V25.376H397.417V27.296H399.337V29.216H401.257V31.904H399.337V33.056H403.177V37.664H401.257V39.584H398.953ZM360.553 28.064V27.296H362.473V28.064H360.553ZM370.153 28.064V27.296H373.993V28.064H370.153ZM371.689 53.024V51.104H367.849V48.416H371.689V46.496H374.377V48.8H373.609V47.264H372.457V49.184H368.617V50.336H372.457V52.256H373.609V50.336H376.297V52.256H377.449V49.184H375.529V42.656H377.449V39.584H375.529V37.664H373.609V35.744H371.689V33.824H370.537V37.664H364.009V31.904H362.089V29.216H366.697V31.136H367.849V27.68H368.617V31.904H365.929V29.984H362.857V31.136H364.777V36.896H369.769V33.056H372.457V34.976H374.377V36.896H376.297V38.816H378.217V43.424H376.297V48.416H378.217V53.024H375.529V51.104H374.377V53.024H371.689ZM381.289 53.024V51.104H379.369V48.416H383.209V46.496H385.129V44.576H387.817V49.184H385.897V50.336H388.969V41.504H385.129V38.816H387.049V37.664H385.129V29.216H387.817V31.136H389.737V35.744H387.049V33.44H387.817V34.976H388.969V31.904H387.049V29.984H385.897V36.896H387.817V39.584H385.897V40.736H389.737V51.104H385.129V48.416H387.049V45.344H385.897V47.264H383.977V49.184H380.137V50.336H382.057V52.256H389.353V53.024H381.289ZM402.409 31.52V29.6H403.177V31.52H402.409ZM360.169 37.664V34.976H362.089V33.824H360.169V29.6H360.937V33.056H362.857V35.744H360.937V36.896H362.473V37.664H360.169ZM366.312 35.744V34.976H367.849V33.824H366.312V33.056H368.617V35.744H366.312ZM390.889 43.424V41.12H391.657V42.656H392.809V39.584H390.889V37.664H389.737V39.2H388.969V36.896H391.657V38.816H393.576V43.424H390.889ZM371.689 45.344V41.504H369.769V38.816H371.689V37.28H372.457V39.584H370.537V40.736H372.457V44.576H373.609V40.736H375.913V41.504H374.377V45.344H371.689ZM362.089 44.96V39.584H360.937V41.12H360.169V38.816H362.857V44.96H362.089ZM365.929 45.344V43.424H364.009V39.2H364.777V42.656H366.697V44.576H369.769V43.424H367.849V39.584H366.697V41.12H365.929V38.816H368.617V42.656H370.537V45.344H365.929ZM390.889 49.184V44.576H393.576V46.496H396.649V39.584H395.113V38.816H397.417V47.264H392.809V45.344H391.657V48.416H397.033V49.184H390.889ZM379.369 47.264V42.656H381.289V40.736H383.977V42.656H387.433V43.424H383.209V41.504H382.057V43.424H380.137V46.496H381.289V44.96H382.057V47.264H379.369ZM398.569 46.88V42.656H400.489V41.504H398.953V40.736H401.257V43.424H399.337V46.88H398.569ZM394.729 44.96V43.04H395.497V44.96H394.729ZM365.929 48.8V47.264H364.009V44.96H364.777V46.496H366.697V48.8H365.929ZM377.449 46.88V44.96H378.217V46.88H377.449ZM368.233 47.264V46.496H370.153V47.264H368.233ZM391.273 51.104V50.336H393.193V51.104H391.273Z" fill="#1E1E1E"/>
<path d="M13.3235 21.664V19.36H14.0915V20.896H15.2435V17.824H13.3235V15.136H15.2435V7.456H17.9315V11.68H17.1635V8.224H16.0115V15.904H14.0915V17.056H16.0115V21.664H13.3235ZM21.0035 12.064V9.376H23.3075V10.144H21.7715V11.296H26.7635V10.144H24.8435V8.224H19.8515V9.76H19.0835V7.456H25.6115V9.376H27.5315V12.064H21.0035ZM40.2035 17.824V15.904H38.2835V13.216H40.2035V12.064H38.2835V9.376H40.2035V7.84H40.9715V10.144H39.0515V11.296H40.9715V13.984H39.0515V15.136H40.9715V17.056H42.1235V11.296H44.8115V13.216H45.9635V8.224H42.8915V9.376H44.4275V10.144H42.1235V7.456H46.7315V13.984H44.0435V12.064H42.8915V17.824H40.2035ZM48.2675 8.224V7.456H50.1875V8.224H48.2675ZM48.2675 13.984V13.216H51.7235V10.144H48.6515V11.296H50.1875V12.064H47.8835V9.376H52.4915V13.984H48.2675ZM13.3235 13.6V9.76H14.0915V13.6H13.3235ZM19.0835 15.904V11.68H19.8515V15.136H21.3875V15.904H19.0835ZM21.3875 13.984V13.216H25.2275V13.984H21.3875ZM19.0835 21.664V19.744H17.1635V17.056H21.7715V18.976H22.9235V15.136H26.7635V13.216H29.4515V15.136H30.9875V15.904H28.6835V13.984H27.5315V15.904H23.6915V19.744H21.0035V17.824H17.9315V18.976H19.8515V20.896H23.3075V21.664H19.0835ZM17.1635 15.52V13.6H17.9315V15.52H17.1635ZM45.9635 17.824V15.904H44.8115V17.44H44.0435V15.136H46.7315V17.056H47.8835V15.136H50.5715V17.056H51.7235V15.52H52.4915V17.824H49.8035V15.904H48.6515V17.824H45.9635ZM21.0035 48.544V46.624H19.0835V42.784H17.5475V42.016H19.8515V45.856H21.7715V47.776H22.9235V45.856H25.6115V47.776H26.7635V42.784H24.8435V40.096H26.7635V38.944H24.8435V36.256H26.7635V26.656H28.6835V21.664H24.8435V17.056H31.3715V19.744H27.1475V18.976H30.6035V17.824H25.6115V20.896H29.4515V27.424H27.5315V37.024H25.6115V38.176H27.5315V40.864H25.6115V42.016H27.5315V48.544H24.8435V46.624H23.6915V48.544H21.0035ZM38.2835 23.584V17.44H39.0515V22.816H40.5875V23.584H38.2835ZM47.8835 42.784V40.096H50.1875V40.864H48.6515V42.016H51.7235V33.184H50.5715V35.104H47.8835V31.264H44.8115V32.416H46.7315V36.256H50.5715V38.944H44.0435V35.104H42.1235V31.264H40.2035V27.424H38.2835V24.736H44.8115V27.424H42.8915V28.576H50.5715V30.496H51.7235V27.424H49.8035V24.736H51.7235V19.744H46.7315V20.896H48.6515V23.584H42.1235V20.896H44.4275V21.664H42.8915V22.816H47.8835V21.664H45.9635V18.976H52.4915V25.504H50.5715V26.656H52.4915V31.264H49.8035V29.344H42.1235V26.656H44.0435V25.504H39.0515V26.656H40.9715V30.496H42.8915V34.336H44.8115V38.176H49.8035V37.024H45.9635V33.184H44.0435V30.496H48.6515V34.336H49.8035V32.416H52.4915V42.784H47.8835ZM40.2035 21.28V18.976H44.4275V19.744H40.9715V21.28H40.2035ZM29.0675 37.024V36.256H32.5235V35.104H28.6835V32.416H30.6035V30.496H32.5235V29.344H30.6035V26.656H32.5235V24.736H34.4435V21.664H33.2915V23.584H30.6035V21.28H31.3715V22.816H32.5235V20.896H35.2115V25.504H33.2915V27.424H31.3715V28.576H33.2915V31.264H31.3715V33.184H29.4515V34.336H33.2915V37.024H29.0675ZM49.8035 23.2V21.28H50.5715V23.2H49.8035ZM17.1635 23.584V21.28H17.9315V22.816H21.3875V23.584H17.1635ZM24.8435 25.504V23.584H23.6915V25.12H22.9235V22.816H25.6115V24.736H26.7635V23.2H27.5315V25.504H24.8435ZM13.3235 31.264V26.656H19.0835V25.504H13.3235V22.816H15.6275V23.584H14.0915V24.736H19.8515V27.424H14.0915V30.496H17.1635V29.344H15.6275V28.576H17.9315V31.264H13.3235ZM45.9635 27.424V24.736H48.2675V25.504H46.7315V26.656H48.2675V27.424H45.9635ZM34.8275 27.424V26.656H36.3635V25.12H37.1315V27.424H34.8275ZM24.8435 28.96V27.424H21.0035V25.12H21.7715V26.656H25.6115V28.96H24.8435ZM21.0035 35.104V28.576H23.3075V29.344H21.7715V34.336H24.8435V31.264H23.6915V32.8H22.9235V30.496H25.6115V35.104H21.0035ZM32.9075 33.184V32.416H38.2835V29.344H35.2115V30.496H36.7475V31.264H34.4435V28.576H39.0515V33.184H32.9075ZM19.0835 30.88V28.96H19.8515V30.88H19.0835ZM28.6835 30.88V28.96H29.4515V30.88H28.6835ZM21.0035 44.704V42.016H22.9235V38.944H19.8515V40.864H17.1635V38.944H15.2435V37.024H13.3235V34.336H15.2435V33.184H13.7075V32.416H16.0115V35.104H14.0915V36.256H16.0115V38.176H17.9315V40.096H19.0835V38.176H23.6915V42.784H21.7715V43.936H25.2275V44.704H21.0035ZM19.0835 37.024V35.104H17.1635V32.8H17.9315V34.336H19.8515V36.256H23.3075V37.024H19.0835ZM38.6675 35.104V34.336H40.2035V32.8H40.9715V35.104H38.6675ZM34.4435 36.64V34.72H35.2115V36.64H34.4435ZM38.2835 40.864V38.176H42.1235V37.024H36.3635V34.72H37.1315V36.256H42.8915V38.944H39.0515V40.096H46.3475V40.864H38.2835ZM40.2035 52.384V50.464H39.0515V52H38.2835V49.696H40.9715V51.616H44.0435V50.464H42.1235V45.856H44.8115V47.776H47.8835V46.624H45.9635V42.784H39.0515V44.704H36.3635V42.784H34.4435V38.944H31.3715V40.096H33.2915V42.4H32.5235V40.864H30.6035V38.176H35.2115V42.016H37.1315V43.936H38.2835V42.016H46.7315V45.856H48.6515V48.544H44.0435V46.624H42.8915V49.696H44.8115V52.384H40.2035ZM36.3635 40.48V38.56H37.1315V40.48H36.3635ZM13.7075 42.784V42.016H15.2435V40.864H13.3235V38.56H14.0915V40.096H16.0115V42.784H13.7075ZM15.2435 46.624V44.704H14.0915V46.24H13.3235V43.936H16.0115V45.856H17.1635V44.32H17.9315V46.624H15.2435ZM38.2835 48.544V46.624H37.1315V48.16H36.3635V45.856H39.0515V47.776H40.2035V43.936H44.4275V44.704H40.9715V48.544H38.2835ZM48.2675 44.704V43.936H52.1075V44.704H48.2675ZM34.4435 46.24V44.32H35.2115V46.24H34.4435ZM45.9635 52.384V49.696H48.2675V50.464H46.7315V51.616H49.8035V45.856H52.4915V52H51.7235V46.624H50.5715V52.384H45.9635ZM17.1635 52.384V48.544H16.0115V50.464H13.3235V48.16H14.0915V49.696H15.2435V47.776H17.9315V51.616H19.0835V49.696H23.6915V51.616H24.8435V49.696H27.1475V50.464H25.6115V52.384H22.9235V50.464H19.8515V52.384H17.1635ZM13.7075 52.384V51.616H15.6275V52.384H13.7075ZM59.0985 44.704V42.016H63.7065V43.936H64.8585V40.864H61.0185V36.256H63.7065V38.176H64.8585V36.256H66.7785V32.416H70.6185V30.496H72.5385V24.736H74.4585V22.816H76.3785V15.904H74.4585V13.984H72.5385V11.296H76.3785V7.456H79.0665V9.376H82.1385V7.456H86.3625V8.224H82.9065V10.144H78.2985V8.224H77.1465V12.064H73.3065V13.216H75.2265V15.136H77.1465V23.584H75.2265V25.504H73.3065V31.264H71.3865V33.184H67.5465V37.024H65.6265V38.944H62.9385V37.024H61.7865V40.096H65.6265V44.704H62.9385V42.784H59.8665V43.936H61.4025V44.704H59.0985ZM72.5385 10.144V7.456H74.8425V8.224H73.3065V9.376H74.8425V10.144H72.5385ZM89.8185 11.68V10.144H87.8985V7.84H88.6665V9.376H90.5865V11.68H89.8185ZM76.3785 29.344V26.656H78.2985V20.896H80.2185V19.744H78.2985V17.056H82.1385V11.296H84.0585V9.376H86.3625V10.144H84.8265V12.064H82.9065V17.824H79.0665V18.976H80.9865V21.664H79.0665V27.424H77.1465V28.576H78.6825V29.344H76.3785ZM62.9385 33.184V30.88H63.7065V32.416H64.8585V30.496H66.7785V27.424H64.8585V24.736H70.6185V20.896H74.4585V19.744H70.6185V9.76H71.3865V18.976H75.2265V21.664H71.3865V25.504H65.6265V26.656H67.5465V31.264H65.6265V33.184H62.9385ZM84.0585 15.904V13.216H85.9785V11.296H88.2825V12.064H86.7465V13.984H84.8265V15.136H87.8985V13.216H92.1225V13.984H88.6665V15.904H84.0585ZM78.2985 15.904V11.68H79.0665V15.136H80.2185V11.68H80.9865V15.904H78.2985ZM93.6585 34.72V33.184H91.7385V28.576H95.5785V25.504H93.6585V23.584H92.5065V27.424H90.5865V31.264H87.8985V27.424H85.9785V18.976H89.8185V15.136H92.5065V18.976H94.4265V21.664H90.5865V23.584H88.6665V24.736H90.2025V25.504H87.8985V22.816H89.8185V20.896H93.6585V19.744H91.7385V15.904H90.5865V19.744H86.7465V26.656H88.6665V30.496H89.8185V26.656H91.7385V22.816H94.4265V24.736H96.3465V29.344H92.5065V32.416H94.4265V34.72H93.6585ZM72.5385 17.824V15.52H73.3065V17.056H74.8425V17.824H72.5385ZM66.7785 23.584V20.896H68.6985V15.52H69.4665V21.664H67.5465V22.816H69.0825V23.584H66.7785ZM84.4425 17.824V17.056H88.2825V17.824H84.4425ZM82.1385 21.664V18.976H84.4425V19.744H82.9065V20.896H84.4425V21.664H82.1385ZM84.0585 33.184V30.88H84.8265V32.416H85.9785V29.344H84.0585V23.584H82.5225V22.816H84.8265V28.576H86.7465V33.184H84.0585ZM82.1385 28.96V25.12H82.9065V28.96H82.1385ZM68.6985 29.344V26.656H71.0025V27.424H69.4665V28.576H71.0025V29.344H68.6985ZM74.4585 31.264V27.04H75.2265V30.496H78.6825V31.264H74.4585ZM95.5785 35.104V32.416H97.4985V31.264H94.0425V30.496H98.2665V33.184H96.3465V34.336H97.8825V35.104H95.5785ZM68.6985 36.64V34.336H72.5385V32.416H74.8425V33.184H73.3065V35.104H69.4665V36.64H68.6985ZM89.8185 34.72V33.184H88.2825V32.416H90.5865V34.72H89.8185ZM76.3785 36.64V32.8H77.1465V36.64H76.3785ZM63.3225 35.104V34.336H65.2425V35.104H63.3225ZM80.2185 46.624V40.096H82.1385V35.104H80.9865V38.56H80.2185V34.336H82.9065V40.864H80.9865V45.856H84.0585V44.704H82.1385V42.016H84.0585V38.176H85.9785V37.024H84.0585V34.336H88.6665V36.256H90.5865V42.016H92.5065V43.936H93.6585V38.944H92.5065V40.48H91.7385V38.176H94.4265V44.704H91.7385V42.784H89.8185V37.024H87.8985V35.104H84.8265V36.256H86.7465V38.944H84.8265V42.784H82.9065V43.936H84.8265V46.624H80.2185ZM95.5785 40.864V38.56H96.3465V40.096H97.4985V37.024H91.7385V34.72H92.5065V36.256H98.2665V40.864H95.5785ZM57.1785 52.384V47.776H59.0985V45.856H66.7785V43.936H69.4665V49.696H72.5385V42.016H74.4585V40.864H66.7785V38.176H70.6185V36.256H75.2265V38.176H78.2985V36.64H79.0665V38.944H74.4585V37.024H71.3865V38.944H67.5465V40.096H75.2265V42.784H73.3065V50.464H68.6985V44.704H67.5465V46.624H59.8665V48.544H57.9465V51.616H59.0985V49.696H61.0185V47.776H63.7065V49.696H67.5465V52.384H61.4025V51.616H66.7785V50.464H62.9385V48.544H61.7865V50.464H59.8665V52.384H57.1785ZM99.4185 44.32V36.64H100.187V44.32H99.4185ZM85.9785 42.784V40.096H87.8985V38.56H88.6665V40.864H86.7465V42.016H88.2825V42.784H85.9785ZM76.3785 46.624V44.32H77.1465V45.856H78.2985V40.864H77.1465V42.4H76.3785V40.096H79.0665V46.624H76.3785ZM67.1625 42.784V42.016H69.0825V42.784H67.1625ZM94.0425 52.384V51.616H95.5785V42.4H96.3465V52.384H94.0425ZM97.4985 44.32V42.4H98.2665V44.32H97.4985ZM101.339 44.32V42.4H102.107V44.32H101.339ZM70.6185 48.16V42.4H71.3865V48.16H70.6185ZM88.2825 44.704V43.936H90.2025V44.704H88.2825ZM74.4585 46.24V44.32H75.2265V46.24H74.4585ZM87.8985 48.16V46.624H85.9785V44.32H86.7465V45.856H88.6665V48.16H87.8985ZM90.2025 46.624V45.856H92.1225V46.624H90.2025ZM101.339 52.384V50.464H97.8825V49.696H102.107V51.616H103.259V46.624H98.2665V47.776H101.723V48.544H97.4985V45.856H104.027V52.384H101.339ZM65.2425 48.544V47.776H67.1625V48.544H65.2425ZM89.8185 52.384V47.776H94.4265V50.08H93.6585V48.544H90.5865V51.616H91.7385V50.08H92.5065V52.384H89.8185ZM69.0825 52.384V51.616H71.0025V52.384H69.0825ZM97.8825 52.384V51.616H99.8025V52.384H97.8825ZM109.011 31.264V22.816H110.931V19.744H109.011V17.056H110.931V12.064H109.011V9.376H113.619V15.136H114.771V13.216H116.691V9.376H118.611V7.456H122.835V8.224H119.379V10.144H117.459V13.984H115.539V15.904H112.851V10.144H109.779V11.296H111.699V17.824H109.779V18.976H111.699V23.584H109.779V30.496H112.851V29.344H110.931V26.656H112.851V23.2H113.619V27.424H111.699V28.576H113.619V31.264H109.011ZM111.315 8.224V7.456H117.075V8.224H111.315ZM114.771 35.104V30.496H116.691V29.344H114.771V21.664H112.851V17.056H116.691V15.136H120.531V13.984H118.611V11.296H125.139V13.216H130.131V11.296H132.051V9.376H137.811V8.224H125.139V10.144H120.915V9.376H124.371V7.456H138.579V10.144H132.819V12.064H130.899V13.984H124.371V12.064H119.379V13.216H121.299V15.904H117.459V17.824H113.619V20.896H115.539V28.576H117.459V31.264H115.539V34.336H116.691V32.416H122.451V25.504H121.299V27.424H119.379V30.496H120.531V28.96H121.299V31.264H118.611V26.656H120.531V24.736H123.219V33.184H117.459V35.104H114.771ZM140.115 8.224V7.456H142.035V8.224H140.115ZM126.291 12.064V9.76H127.059V11.296H128.211V9.376H130.515V10.144H128.979V12.064H126.291ZM141.651 19.744V17.056H143.571V10.144H140.499V12.064H134.739V13.216H136.275V13.984H133.971V11.296H139.731V9.376H144.339V17.824H142.419V18.976H143.955V19.744H141.651ZM114.771 11.68V9.76H115.539V11.68H114.771ZM138.195 13.984V13.216H140.115V13.984H138.195ZM136.275 17.824V17.056H139.731V15.136H141.651V13.6H142.419V15.904H140.499V17.824H136.275ZM109.011 15.52V13.6H109.779V15.52H109.011ZM116.691 25.504V23.2H117.459V24.736H118.611V17.056H121.299V20.896H132.051V18.976H133.971V17.824H132.051V15.904H128.979V17.824H126.291V15.904H125.139V19.744H122.451V13.6H123.219V18.976H124.371V15.136H127.059V17.056H128.211V15.136H132.819V17.056H134.739V19.744H132.819V21.664H120.531V17.824H119.379V25.504H116.691ZM134.355 15.904V15.136H138.195V15.904H134.355ZM126.675 19.744V18.976H130.131V17.44H130.899V19.744H126.675ZM134.355 21.664V20.896H135.891V18.976H140.499V21.664H138.195V20.896H139.731V19.744H136.659V21.664H134.355ZM116.691 21.28V19.744H115.155V18.976H117.459V21.28H116.691ZM120.915 23.584V22.816H122.835V23.584H120.915ZM128.211 38.944V36.256H130.131V34.336H132.051V32.8H132.819V35.104H130.899V37.024H128.979V38.176H132.051V36.256H133.971V34.336H139.731V27.424H138.579V29.344H133.971V27.424H132.819V29.344H130.131V27.424H128.979V30.496H130.899V33.184H128.979V35.104H126.291V29.344H124.371V26.656H126.675V27.424H125.139V28.576H127.059V34.336H128.211V32.416H130.131V31.264H128.211V26.656H130.899V28.576H132.051V26.656H134.739V28.576H137.811V26.656H140.499V35.104H134.739V37.024H132.819V38.944H128.211ZM135.891 38.944V36.256H138.195V37.024H136.659V38.176H139.731V36.256H141.651V27.04H142.419V37.024H140.499V38.944H135.891ZM133.971 33.184V31.264H132.435V30.496H134.739V32.416H135.891V30.496H138.579V32.8H137.811V31.264H136.659V33.184H133.971ZM124.371 38.56V37.024H122.451V34.336H124.371V30.88H125.139V35.104H123.219V36.256H125.139V38.56H124.371ZM109.011 38.944V32.416H113.619V34.72H112.851V33.184H109.779V38.176H112.851V37.024H110.931V34.72H111.699V36.256H113.619V38.944H109.011ZM114.771 40.864V36.256H120.531V35.104H118.995V34.336H121.299V37.024H115.539V40.096H116.691V38.176H123.219V40.48H122.451V38.944H117.459V40.864H114.771ZM126.291 38.56V36.64H127.059V38.56H126.291ZM109.011 44.32V40.48H109.779V44.32H109.011ZM120.915 48.544V47.776H122.451V46.624H118.611V42.784H113.619V44.704H110.931V40.48H111.699V43.936H112.851V42.016H119.379V45.856H123.219V48.544H120.915ZM120.915 44.704V43.936H122.451V42.784H120.531V40.48H121.299V42.016H123.219V44.704H120.915ZM114.771 46.624V44.32H115.539V45.856H116.691V44.32H117.459V46.624H114.771ZM109.011 52.384V50.08H109.779V51.616H110.931V48.544H109.011V45.856H113.619V47.776H115.539V49.696H117.459V52.384H115.155V51.616H116.691V50.464H114.771V48.544H112.851V46.624H109.779V47.776H111.699V52.384H109.011ZM118.611 52.384V48.16H119.379V51.616H120.531V49.696H123.219V52H122.451V50.464H121.299V52.384H118.611ZM112.851 52V50.08H113.619V52H112.851ZM146.474 44.704V42.016H151.082V43.936H152.234V40.864H148.394V36.256H151.082V38.176H152.234V36.256H154.154V32.416H157.994V30.496H159.914V24.736H161.833V22.816H163.753V15.904H161.833V13.984H159.914V11.296H163.753V7.456H166.442V9.376H169.514V7.456H173.738V8.224H170.282V10.144H165.674V8.224H164.522V12.064H160.682V13.216H162.602V15.136H164.522V23.584H162.602V25.504H160.682V31.264H158.762V33.184H154.922V37.024H153.002V38.944H150.314V37.024H149.161V40.096H153.002V44.704H150.314V42.784H147.242V43.936H148.778V44.704H146.474ZM159.914 10.144V7.456H162.218V8.224H160.682V9.376H162.218V10.144H159.914ZM177.194 11.68V10.144H175.274V7.84H176.042V9.376H177.962V11.68H177.194ZM163.753 29.344V26.656H165.674V20.896H167.594V19.744H165.674V17.056H169.514V11.296H171.434V9.376H173.738V10.144H172.202V12.064H170.282V17.824H166.442V18.976H168.362V21.664H166.442V27.424H164.522V28.576H166.058V29.344H163.753ZM150.314 33.184V30.88H151.082V32.416H152.234V30.496H154.154V27.424H152.234V24.736H157.994V20.896H161.833V19.744H157.994V9.76H158.762V18.976H162.602V21.664H158.762V25.504H153.002V26.656H154.922V31.264H153.002V33.184H150.314ZM171.434 15.904V13.216H173.354V11.296H175.658V12.064H174.122V13.984H172.202V15.136H175.274V13.216H179.498V13.984H176.042V15.904H171.434ZM165.674 15.904V11.68H166.442V15.136H167.594V11.68H168.362V15.904H165.674ZM181.034 34.72V33.184H179.114V28.576H182.954V25.504H181.034V23.584H179.882V27.424H177.962V31.264H175.274V27.424H173.354V18.976H177.194V15.136H179.882V18.976H181.802V21.664H177.962V23.584H176.042V24.736H177.578V25.504H175.274V22.816H177.194V20.896H181.034V19.744H179.114V15.904H177.962V19.744H174.122V26.656H176.042V30.496H177.194V26.656H179.114V22.816H181.802V24.736H183.722V29.344H179.882V32.416H181.802V34.72H181.034ZM159.914 17.824V15.52H160.682V17.056H162.218V17.824H159.914ZM154.154 23.584V20.896H156.074V15.52H156.842V21.664H154.922V22.816H156.458V23.584H154.154ZM171.818 17.824V17.056H175.658V17.824H171.818ZM169.514 21.664V18.976H171.818V19.744H170.282V20.896H171.818V21.664H169.514ZM171.434 33.184V30.88H172.202V32.416H173.354V29.344H171.434V23.584H169.898V22.816H172.202V28.576H174.122V33.184H171.434ZM169.514 28.96V25.12H170.282V28.96H169.514ZM156.074 29.344V26.656H158.378V27.424H156.842V28.576H158.378V29.344H156.074ZM161.833 31.264V27.04H162.602V30.496H166.058V31.264H161.833ZM182.954 35.104V32.416H184.874V31.264H181.418V30.496H185.642V33.184H183.722V34.336H185.258V35.104H182.954ZM156.074 36.64V34.336H159.914V32.416H162.218V33.184H160.682V35.104H156.842V36.64H156.074ZM177.194 34.72V33.184H175.658V32.416H177.962V34.72H177.194ZM163.753 36.64V32.8H164.522V36.64H163.753ZM150.698 35.104V34.336H152.618V35.104H150.698ZM167.594 46.624V40.096H169.514V35.104H168.362V38.56H167.594V34.336H170.282V40.864H168.362V45.856H171.434V44.704H169.514V42.016H171.434V38.176H173.354V37.024H171.434V34.336H176.042V36.256H177.962V42.016H179.882V43.936H181.034V38.944H179.882V40.48H179.114V38.176H181.802V44.704H179.114V42.784H177.194V37.024H175.274V35.104H172.202V36.256H174.122V38.944H172.202V42.784H170.282V43.936H172.202V46.624H167.594ZM182.954 40.864V38.56H183.722V40.096H184.874V37.024H179.114V34.72H179.882V36.256H185.642V40.864H182.954ZM144.553 52.384V47.776H146.474V45.856H154.154V43.936H156.842V49.696H159.914V42.016H161.833V40.864H154.154V38.176H157.994V36.256H162.602V38.176H165.674V36.64H166.442V38.944H161.833V37.024H158.762V38.944H154.922V40.096H162.602V42.784H160.682V50.464H156.074V44.704H154.922V46.624H147.242V48.544H145.322V51.616H146.474V49.696H148.394V47.776H151.082V49.696H154.922V52.384H148.778V51.616H154.154V50.464H150.314V48.544H149.161V50.464H147.242V52.384H144.553ZM186.794 44.32V36.64H187.562V44.32H186.794ZM173.354 42.784V40.096H175.274V38.56H176.042V40.864H174.122V42.016H175.658V42.784H173.354ZM163.753 46.624V44.32H164.522V45.856H165.674V40.864H164.522V42.4H163.753V40.096H166.442V46.624H163.753ZM154.538 42.784V42.016H156.458V42.784H154.538ZM181.418 52.384V51.616H182.954V42.4H183.722V52.384H181.418ZM184.874 44.32V42.4H185.642V44.32H184.874ZM188.714 44.32V42.4H189.482V44.32H188.714ZM157.994 48.16V42.4H158.762V48.16H157.994ZM175.658 44.704V43.936H177.578V44.704H175.658ZM161.833 46.24V44.32H162.602V46.24H161.833ZM175.274 48.16V46.624H173.354V44.32H174.122V45.856H176.042V48.16H175.274ZM177.578 46.624V45.856H179.498V46.624H177.578ZM188.714 52.384V50.464H185.258V49.696H189.482V51.616H190.634V46.624H185.642V47.776H189.098V48.544H184.874V45.856H191.402V52.384H188.714ZM152.618 48.544V47.776H154.538V48.544H152.618ZM177.194 52.384V47.776H181.802V50.08H181.034V48.544H177.962V51.616H179.114V50.08H179.882V52.384H177.194ZM156.458 52.384V51.616H158.378V52.384H156.458ZM185.258 52.384V51.616H187.178V52.384H185.258ZM206.771 31.52V25.376H208.691V22.304H206.771V20.384H204.851V17.696H208.691V13.856H211.378V19.616H219.059V21.536H222.131V20.384H220.211V18.464H214.451V16.544H212.531V12.704H205.619V13.856H207.539V16.544H202.931V14.624H201.01V11.936H202.931V10.016H208.691V8.864H205.235V8.096H209.458V10.784H203.699V12.704H201.779V13.856H203.699V15.776H206.771V14.624H204.851V11.936H213.299V15.776H215.219V17.696H220.979V19.616H222.899V22.304H218.291V20.384H210.611V14.624H209.458V18.464H205.619V19.616H207.539V21.536H209.458V26.144H207.539V31.52H206.771ZM210.611 10.784V8.48H211.378V10.016H212.531V8.096H215.219V10.4H214.451V8.864H213.299V10.784H210.611ZM222.131 18.08V13.856H224.051V10.784H222.899V12.704H220.211V8.864H219.059V10.784H216.371V8.48H217.139V10.016H218.291V8.096H220.979V11.936H222.131V10.016H224.819V14.624H222.899V18.08H222.131ZM225.971 12.704V10.4H226.739V11.936H228.275V12.704H225.971ZM214.835 14.624V13.856H216.371V12.704H214.835V11.936H217.139V14.624H214.835ZM197.555 14.624V13.856H199.091V12.32H199.859V14.624H197.555ZM216.755 16.544V15.776H220.211V14.624H218.291V12.32H219.059V13.856H220.979V16.544H216.755ZM229.811 16.544V14.624H226.354V13.856H230.579V15.776H232.115V16.544H229.811ZM224.051 22.304V19.616H225.971V18.464H224.051V15.776H228.275V16.544H224.819V17.696H226.739V20.384H224.819V21.536H229.811V18.464H228.659V20H227.891V17.696H230.579V22.304H224.051ZM201.01 24.224V22.304H199.091V18.464H195.251V15.776H201.395V16.544H196.019V17.696H199.859V21.536H201.779V23.456H202.931V21.536H205.235V22.304H203.699V24.224H201.01ZM201.01 20.384V17.696H203.315V18.464H201.779V19.616H203.315V20.384H201.01ZM231.731 21.92V18.08H232.499V21.92H231.731ZM193.331 24.224V21.536H197.171V20.384H193.715V19.616H197.939V22.304H194.099V23.456H197.555V24.224H193.331ZM201.01 33.824V31.904H197.171V25.76H197.939V31.136H201.779V33.056H202.931V29.216H204.851V28.064H202.931V25.376H204.851V23.456H207.155V24.224H205.619V26.144H203.699V27.296H205.619V29.984H203.699V33.824H201.01ZM222.131 29.984V26.144H219.059V28.064H216.371V26.144H214.451V24.224H212.915V23.456H215.219V25.376H217.139V27.296H218.291V25.376H222.899V29.216H224.051V25.76H224.819V29.984H222.131ZM199.091 27.68V23.84H199.859V27.68H199.091ZM210.611 26.144V23.84H211.378V25.376H212.915V26.144H210.611ZM195.251 29.6V25.76H196.019V29.6H195.251ZM199.475 29.984V29.216H201.01V25.76H201.779V29.984H199.475ZM225.971 37.664V27.296H228.659V29.6H227.891V28.064H226.739V36.896H229.811V33.824H228.659V35.36H227.891V33.056H230.579V37.664H225.971ZM208.691 31.904V27.296H211.378V29.216H212.531V27.296H214.835V28.064H213.299V29.984H210.611V28.064H209.458V31.136H214.451V29.6H215.219V31.904H208.691ZM220.211 41.504V38.816H222.131V37.664H220.211V33.824H215.219V34.976H217.139V37.664H214.835V36.896H216.371V35.744H214.451V33.056H220.979V36.896H222.899V39.584H220.979V40.736H224.051V35.744H222.131V33.056H224.051V31.904H216.371V29.216H220.211V27.68H220.979V29.984H217.139V31.136H224.819V33.824H222.899V34.976H224.819V41.504H220.211ZM228.275 31.904V31.136H229.811V29.6H230.579V31.904H228.275ZM231.731 35.744V29.6H232.499V34.976H233.651V33.44H234.419V35.744H231.731ZM204.851 35.744V31.52H205.619V34.976H206.771V33.056H209.458V35.36H208.691V33.824H207.539V35.744H204.851ZM210.611 35.744V33.056H212.915V33.824H211.378V34.976H212.915V35.744H210.611ZM218.291 39.2V35.36H219.059V39.2H218.291ZM222.131 52.64V50.336H224.051V44.576H227.891V42.656H230.579V44.576H231.731V36.896H234.419V43.04H233.651V37.664H232.499V45.344H229.811V43.424H228.659V45.344H224.819V51.104H222.899V52.64H222.131ZM197.171 47.264V45.344H193.331V38.816H199.475V39.584H194.099V44.576H197.939V46.496H199.091V44.576H202.931V43.424H199.091V40.736H201.01V38.816H205.619V40.736H207.539V42.656H212.531V41.12H213.299V43.424H206.771V41.504H204.851V39.584H201.779V41.504H199.859V42.656H203.699V45.344H199.859V47.264H197.171ZM208.691 41.504V39.2H209.458V40.736H210.995V41.504H208.691ZM218.675 49.184V48.416H222.131V42.656H225.971V40.736H227.891V39.2H228.659V41.504H226.739V43.424H222.899V49.184H218.675ZM229.811 41.12V39.2H230.579V41.12H229.811ZM195.251 43.04V40.736H197.939V43.04H197.171V41.504H196.019V43.04H195.251ZM214.451 53.024V48.416H216.371V46.496H218.291V44.576H220.211V43.424H218.291V41.504H217.139V43.424H214.451V41.12H215.219V42.656H216.371V40.736H219.059V42.656H220.979V45.344H219.059V47.264H217.139V49.184H215.219V52.256H216.371V50.336H220.979V53.024H218.675V52.256H220.211V51.104H217.139V53.024H214.451ZM197.555 49.184V48.416H201.01V46.496H204.851V43.04H205.619V47.264H201.779V49.184H197.555ZM204.851 53.024V51.104H199.475V50.336H205.619V52.256H208.691V50.336H211.378V52.256H212.531V47.264H210.611V44.576H215.219V46.88H214.451V45.344H211.378V46.496H213.299V53.024H210.611V51.104H209.458V53.024H204.851ZM206.771 50.72V46.496H208.691V45.344H207.155V44.576H209.458V47.264H207.539V50.72H206.771ZM226.354 49.184V48.416H227.891V46.496H230.579V48.8H229.811V47.264H228.659V49.184H226.354ZM203.315 49.184V48.416H205.235V49.184H203.315ZM209.075 49.184V48.416H210.995V49.184H209.075ZM241.668 39.456V35.616H239.748V32.928H241.668V29.088H246.276V33.696H244.356V36.768H245.892V37.536H243.588V32.928H245.508V29.856H242.436V33.696H240.516V34.848H242.436V38.688H251.268V36.768H253.956V38.688H258.948V37.536H255.108V35.616H253.188V29.088H257.028V27.936H250.116V29.856H247.428V27.936H240.516V31.392H239.748V27.168H248.196V29.088H249.348V27.168H257.796V29.856H253.956V34.848H255.876V36.768H259.716V39.456H253.188V37.536H252.036V39.456H241.668ZM258.948 31.392V27.168H261.252V27.936H259.716V31.392H258.948ZM260.868 39.456V36.768H262.788V29.856H261.636V33.696H255.108V31.008H257.412V31.776H255.876V32.928H260.868V29.088H263.556V37.536H261.636V38.688H263.172V39.456H260.868ZM249.348 35.616V33.696H247.428V31.008H249.732V31.776H248.196V32.928H250.116V34.848H251.268V29.472H252.036V35.616H249.348ZM245.892 35.616V34.848H247.812V35.616H245.892ZM257.412 35.616V34.848H261.252V35.616H257.412ZM247.812 37.536V36.768H249.732V37.536H247.812ZM239.748 39.072V37.152H240.516V39.072H239.748ZM270.449 25.504V22.816H272.369V21.664H270.449V17.056H272.369V15.904H270.449V9.76H271.217V15.136H273.137V17.824H271.217V20.896H273.137V23.584H271.217V24.736H274.289V17.056H276.209V12.064H272.369V9.376H274.289V7.456H280.817V9.376H281.969V7.456H284.657V11.296H286.577V13.216H287.729V9.376H289.649V7.456H294.257V9.376H300.017V12.064H291.953V11.296H299.249V10.144H293.489V8.224H290.417V10.144H288.497V13.984H285.809V12.064H283.889V8.224H282.737V10.144H280.049V8.224H275.057V10.144H273.137V11.296H276.977V17.824H275.057V25.504H270.449ZM285.809 9.76V7.456H288.113V8.224H286.577V9.76H285.809ZM276.593 10.144V9.376H278.513V10.144H276.593ZM291.569 29.344V26.656H293.489V24.736H297.329V23.584H293.489V19.744H291.569V17.824H285.809V15.904H278.129V13.216H281.969V12.064H280.433V11.296H282.737V13.984H278.897V15.136H286.577V17.056H292.337V18.976H294.257V22.816H298.097V25.504H294.257V27.424H292.337V28.576H297.329V27.424H295.793V26.656H298.097V29.344H291.569ZM301.553 12.064V11.296H303.472V12.064H301.553ZM288.113 15.904V15.136H291.569V13.984H289.649V11.68H290.417V13.216H292.337V15.904H288.113ZM274.289 15.52V13.984H272.753V13.216H275.057V15.52H274.289ZM303.472 15.904V15.136H305.009V13.984H299.632V13.216H305.777V15.904H303.472ZM305.009 23.584V17.824H303.857V19.744H299.249V17.824H298.097V19.744H295.409V15.904H293.489V13.216H298.097V15.136H301.937V17.44H301.169V15.904H297.329V13.984H294.257V15.136H296.177V18.976H297.329V17.056H300.017V18.976H303.089V17.056H305.777V22.816H308.849V21.28H309.617V23.584H305.009ZM306.929 15.52V13.6H307.697V15.52H306.929ZM295.409 38.944V34.336H297.713V35.104H296.177V38.176H297.329V36.256H299.249V33.184H295.409V31.264H289.649V27.424H285.809V21.664H283.889V19.744H282.737V21.664H280.817V22.816H284.657V27.424H278.129V23.584H276.209V20.896H278.129V18.976H280.049V17.056H282.353V17.824H280.817V19.744H278.897V21.664H276.977V22.816H278.897V26.656H283.889V23.584H280.049V20.896H281.969V18.976H284.657V20.896H286.577V26.656H290.417V30.496H296.177V32.416H300.017V37.024H298.097V38.944H295.409ZM307.312 17.824V17.056H309.233V17.824H307.312ZM286.193 19.744V18.976H290.033V19.744H286.193ZM306.929 21.28V18.976H309.233V19.744H307.697V21.28H306.929ZM295.793 21.664V20.896H299.632V21.664H295.793ZM299.249 27.424V22.816H301.169V20.896H303.857V23.2H303.089V21.664H301.937V23.584H300.017V26.656H301.169V24.736H303.857V26.656H305.393V27.424H303.089V25.504H301.937V27.424H299.249ZM305.393 25.504V24.736H307.312V25.504H305.393ZM280.433 25.504V24.736H282.353V25.504H280.433ZM281.969 35.104V33.184H280.433V32.416H282.737V34.336H283.889V29.344H276.209V25.12H276.977V28.576H284.657V35.104H281.969ZM270.449 31.264V28.96H271.217V30.496H272.369V27.424H270.833V26.656H273.137V31.264H270.449ZM274.289 30.88V27.04H275.057V30.88H274.289ZM305.009 33.184V28.96H305.777V32.416H306.929V27.04H307.697V33.184H305.009ZM308.849 28.96V27.04H309.617V28.96H308.849ZM285.809 33.184V28.576H288.497V30.88H287.729V29.344H286.577V32.416H288.113V33.184H285.809ZM301.169 35.104V32.416H303.089V29.344H300.017V30.496H301.553V31.264H299.249V28.576H303.857V33.184H301.937V34.336H303.472V35.104H301.169ZM280.433 31.264V30.496H282.353V31.264H280.433ZM270.449 52.384V47.776H274.289V45.856H276.977V48.16H276.209V46.624H275.057V48.544H271.217V51.616H276.209V49.696H278.897V51.616H285.809V50.464H280.049V48.544H278.129V44.704H273.137V46.624H270.449V40.096H273.137V42.016H274.289V38.176H276.209V37.024H274.289V32.416H276.209V30.496H278.897V34.336H280.817V36.256H282.737V38.176H283.889V36.256H286.577V38.176H291.569V37.024H288.113V36.256H292.337V38.944H285.809V37.024H284.657V38.944H281.969V37.024H280.049V35.104H278.129V31.264H276.977V33.184H275.057V36.256H276.977V38.944H275.057V42.784H272.369V40.864H271.217V45.856H272.369V43.936H278.897V47.776H280.817V49.696H286.577V52.384H278.129V50.464H276.977V52.384H270.449ZM293.489 36.64V35.104H291.569V33.184H290.033V32.416H292.337V34.336H294.257V36.64H293.489ZM270.833 35.104V34.336H272.369V33.184H270.833V32.416H273.137V35.104H270.833ZM286.193 35.104V34.336H290.033V35.104H286.193ZM270.449 38.56V36.256H273.137V38.56H272.369V37.024H271.217V38.56H270.449ZM301.553 37.024V36.256H303.472V37.024H301.553ZM281.969 48.544V45.856H285.809V44.704H283.889V42.016H285.809V40.864H282.737V44.704H280.049V42.784H276.209V40.096H278.129V36.64H278.897V40.864H276.977V42.016H280.817V43.936H281.969V40.096H286.577V42.784H284.657V43.936H286.577V46.624H282.737V47.776H284.273V48.544H281.969ZM280.049 40.48V38.56H280.817V40.48H280.049ZM272.753 50.464V49.696H274.673V50.464H272.753ZM315.958 10.144V9.376H317.494V7.456H320.182V9.376H321.718V10.144H319.414V8.224H318.262V10.144H315.958ZM323.254 9.76V8.224H321.718V7.456H324.022V9.76H323.254ZM323.254 13.984V11.68H324.022V13.216H327.094V8.224H325.942V11.68H325.174V7.456H327.862V13.984H323.254ZM338.614 35.104V32.416H340.534V31.264H338.614V28.576H340.534V27.424H338.614V20.896H341.302V22.816H343.222V24.736H344.374V20.896H346.294V19.744H340.534V17.824H336.694V15.136H345.142V17.056H346.294V13.984H342.454V10.144H336.694V8.224H329.782V13.216H330.934V11.296H333.622V13.216H335.542V17.44H334.774V13.984H332.854V12.064H331.702V13.984H329.014V7.456H337.462V9.376H343.222V13.216H347.062V17.824H344.374V15.904H337.462V17.056H341.302V18.976H347.062V21.664H345.142V25.504H342.454V23.584H340.534V21.664H339.382V26.656H341.302V29.344H339.382V30.496H341.302V33.184H339.382V34.336H342.454V32.416H345.142V34.72H344.374V33.184H343.222V35.104H338.614ZM348.214 19.744V17.44H348.982V18.976H353.974V17.824H350.134V15.904H348.214V12.064H344.374V9.376H346.678V10.144H345.142V11.296H348.982V15.136H350.902V17.056H354.742V19.744H348.214ZM331.318 10.144V9.376H333.238V10.144H331.318ZM336.694 13.984V12.064H334.774V9.76H335.542V11.296H337.462V13.216H338.614V11.296H341.302V13.6H340.534V12.064H339.382V13.984H336.694ZM329.014 31.264V29.344H327.094V25.504H325.942V27.424H323.254V17.824H322.102V21.664H319.414V19.744H318.262V23.584H315.574V11.296H322.102V13.984H320.182V17.824H317.494V13.6H318.262V17.056H319.414V13.216H321.334V12.064H316.342V22.816H317.494V18.976H320.182V20.896H321.334V17.056H324.022V26.656H325.174V24.736H327.862V28.576H329.782V30.496H330.934V27.424H329.014V24.736H330.934V19.744H329.782V21.664H327.094V19.36H327.862V20.896H329.014V18.976H331.702V25.504H329.782V26.656H331.702V31.264H329.014ZM327.478 17.824V17.056H329.014V15.136H333.622V17.824H331.318V17.056H332.854V15.904H329.782V17.824H327.478ZM325.174 21.28V15.904H321.718V15.136H325.942V21.28H325.174ZM333.238 19.744V18.976H338.998V19.744H333.238ZM342.454 31.264V26.656H346.294V24.736H353.974V23.584H352.054V21.664H348.982V22.816H350.518V23.584H348.214V20.896H352.822V22.816H354.742V25.504H347.062V27.424H343.222V30.496H346.294V29.344H344.757V28.576H347.062V31.264H342.454ZM325.558 23.584V22.816H329.398V23.584H325.558ZM315.574 27.424V24.736H319.414V22.816H322.102V25.12H321.334V23.584H320.182V25.504H316.342V26.656H321.718V27.424H315.574ZM350.134 33.184V30.496H352.054V28.576H353.974V27.424H350.902V29.344H348.597V28.576H350.134V26.656H354.742V29.344H352.822V31.264H350.902V32.416H352.438V33.184H350.134ZM334.774 31.264V28.96H335.542V30.496H336.694V27.424H333.622V28.96H332.854V26.656H337.462V31.264H334.774ZM329.014 52V49.696H330.934V46.624H329.782V48.544H327.094V43.936H330.934V42.784H327.094V38.944H325.174V37.024H321.334V31.264H318.262V33.184H315.574V28.576H325.942V33.184H323.254V30.88H324.022V32.416H325.174V29.344H316.342V32.416H317.494V30.496H322.102V36.256H325.942V38.176H327.862V42.016H331.702V44.704H327.862V47.776H329.014V45.856H331.702V50.464H329.782V52H329.014ZM327.094 36.64V30.88H327.862V36.64H327.094ZM346.678 33.184V32.416H348.214V30.88H348.982V33.184H346.678ZM329.398 33.184V32.416H331.318V33.184H329.398ZM334.774 35.104V33.184H333.238V32.416H335.542V34.336H336.694V32.8H337.462V35.104H334.774ZM315.574 40.864V34.336H318.262V38.176H319.414V32.8H320.182V38.944H317.494V35.104H316.342V40.096H321.334V38.176H323.638V38.944H322.102V40.864H315.574ZM352.054 50.464V48.544H342.454V45.856H350.134V44.704H348.214V42.016H350.134V40.864H348.214V35.104H347.062V37.024H341.302V40.096H343.222V42.016H344.374V40.096H346.678V40.864H345.142V42.784H342.454V40.864H340.534V36.256H346.294V34.336H348.982V40.096H350.902V42.784H348.982V43.936H350.902V46.624H343.222V47.776H352.822V49.696H353.974V48.16H354.742V50.464H352.054ZM330.934 38.944V36.64H331.702V38.176H332.854V35.104H329.782V36.64H329.014V34.336H333.622V38.944H330.934ZM323.638 35.104V34.336H325.558V35.104H323.638ZM336.694 46.624V42.784H334.774V40.48H335.542V42.016H337.462V45.856H338.614V40.864H336.694V38.176H338.614V37.024H335.542V38.56H334.774V36.256H339.382V38.944H337.462V40.096H339.382V46.624H336.694ZM342.838 38.944V38.176H346.678V38.944H342.838ZM329.014 40.48V38.56H329.782V40.48H329.014ZM323.254 52.384V46.624H321.718V45.856H324.022V51.616H325.174V40.864H324.022V44.704H320.182V47.776H322.102V50.08H321.334V48.544H319.414V43.936H323.254V40.096H325.942V52.384H323.254ZM315.958 42.784V42.016H321.718V42.784H315.958ZM315.574 46.24V43.936H318.262V46.24H317.494V44.704H316.342V46.24H315.574ZM340.534 52.384V50.464H338.614V47.776H340.534V43.936H346.678V44.704H341.302V48.544H339.382V49.696H341.302V51.616H348.214V50.464H342.838V49.696H348.982V52.384H340.534ZM352.054 46.24V44.32H352.822V46.24H352.054ZM317.494 52.384V50.464H315.574V48.16H316.342V49.696H318.262V51.616H321.718V52.384H317.494ZM327.094 52V50.08H327.862V52H327.094ZM350.134 52V50.08H350.902V52H350.134ZM352.438 52.384V51.616H355.894V50.08H356.662V52.384H352.438ZM372.073 8.864V8.096H387.433V8.864H372.073ZM368.233 10.784V10.016H370.153V10.784H368.233ZM369.769 20V17.696H377.449V13.856H382.057V15.776H383.209V12.704H381.289V10.784H380.137V12.704H377.449V10.784H372.457V12.704H370.537V15.776H373.609V14.624H372.073V13.856H374.377V16.544H369.769V11.936H371.689V10.016H378.217V11.936H379.369V10.016H382.057V11.936H383.977V16.544H381.289V14.624H378.217V18.464H370.537V20H369.769ZM392.809 20.384V15.776H394.729V14.624H390.889V12.704H387.049V10.784H385.897V12.32H385.129V10.016H387.817V11.936H391.657V13.856H395.497V16.544H393.576V19.616H398.569V14.624H396.649V12.704H392.809V10.784H389.353V10.016H393.576V11.936H397.417V13.856H399.337V20.384H392.809ZM373.993 12.704V11.936H375.913V12.704H373.993ZM362.089 18.08V15.776H364.009V13.856H365.929V11.936H368.617V16.544H366.312V15.776H367.849V12.704H366.697V14.624H364.777V16.544H362.857V18.08H362.089ZM385.129 28.064V20.384H383.209V17.696H385.129V13.856H387.817V15.776H389.737V17.696H391.657V20.384H387.049V18.08H387.817V19.616H390.889V18.464H388.969V16.544H387.049V14.624H385.897V18.464H383.977V19.616H385.897V27.296H387.049V21.536H389.353V22.304H387.817V28.064H385.129ZM375.529 16.16V14.24H376.297V16.16H375.529ZM379.753 20.384V19.616H381.289V18.464H379.369V16.16H380.137V17.696H382.057V20.384H379.753ZM396.649 18.08V16.16H397.417V18.08H396.649ZM364.009 28.064V26.144H360.169V21.536H362.089V19.616H364.009V17.696H368.617V20.384H366.697V22.304H364.777V23.456H368.233V24.224H364.009V21.536H365.929V19.616H367.849V18.464H364.777V20.384H362.857V22.304H360.937V25.376H364.777V27.296H365.929V25.376H369.769V23.456H375.529V21.92H376.297V24.224H370.537V26.144H366.697V28.064H364.009ZM400.489 20V18.08H401.257V20H400.489ZM371.689 22.304V19.616H377.833V20.384H372.457V21.536H373.993V22.304H371.689ZM368.233 22.304V21.536H370.153V22.304H368.233ZM392.809 25.76V22.304H391.273V21.536H393.576V25.76H392.809ZM398.569 25.76V24.224H394.729V21.536H398.953V22.304H395.497V23.456H399.337V25.76H398.569ZM400.489 28.064V21.92H401.257V27.296H402.409V23.84H403.177V28.064H400.489ZM392.809 37.664V34.976H396.649V33.824H390.889V28.064H388.969V23.456H391.657V25.76H390.889V24.224H389.737V27.296H391.657V33.056H397.417V35.744H393.576V36.896H398.569V34.976H400.873V35.744H399.337V37.664H392.809ZM373.609 33.824V29.984H370.537V31.136H372.073V31.904H369.769V29.216H374.377V33.056H375.529V26.144H373.993V25.376H376.297V33.824H373.609ZM398.953 39.584V38.816H400.489V36.896H402.409V33.824H398.569V31.136H400.489V29.984H398.569V28.064H396.649V26.144H395.497V28.064H393.576V31.136H396.649V29.984H395.113V29.216H397.417V31.904H392.809V27.296H394.729V25.376H397.417V27.296H399.337V29.216H401.257V31.904H399.337V33.056H403.177V37.664H401.257V39.584H398.953ZM360.553 28.064V27.296H362.473V28.064H360.553ZM370.153 28.064V27.296H373.993V28.064H370.153ZM371.689 53.024V51.104H367.849V48.416H371.689V46.496H374.377V48.8H373.609V47.264H372.457V49.184H368.617V50.336H372.457V52.256H373.609V50.336H376.297V52.256H377.449V49.184H375.529V42.656H377.449V39.584H375.529V37.664H373.609V35.744H371.689V33.824H370.537V37.664H364.009V31.904H362.089V29.216H366.697V31.136H367.849V27.68H368.617V31.904H365.929V29.984H362.857V31.136H364.777V36.896H369.769V33.056H372.457V34.976H374.377V36.896H376.297V38.816H378.217V43.424H376.297V48.416H378.217V53.024H375.529V51.104H374.377V53.024H371.689ZM381.289 53.024V51.104H379.369V48.416H383.209V46.496H385.129V44.576H387.817V49.184H385.897V50.336H388.969V41.504H385.129V38.816H387.049V37.664H385.129V29.216H387.817V31.136H389.737V35.744H387.049V33.44H387.817V34.976H388.969V31.904H387.049V29.984H385.897V36.896H387.817V39.584H385.897V40.736H389.737V51.104H385.129V48.416H387.049V45.344H385.897V47.264H383.977V49.184H380.137V50.336H382.057V52.256H389.353V53.024H381.289ZM402.409 31.52V29.6H403.177V31.52H402.409ZM360.169 37.664V34.976H362.089V33.824H360.169V29.6H360.937V33.056H362.857V35.744H360.937V36.896H362.473V37.664H360.169ZM366.312 35.744V34.976H367.849V33.824H366.312V33.056H368.617V35.744H366.312ZM390.889 43.424V41.12H391.657V42.656H392.809V39.584H390.889V37.664H389.737V39.2H388.969V36.896H391.657V38.816H393.576V43.424H390.889ZM371.689 45.344V41.504H369.769V38.816H371.689V37.28H372.457V39.584H370.537V40.736H372.457V44.576H373.609V40.736H375.913V41.504H374.377V45.344H371.689ZM362.089 44.96V39.584H360.937V41.12H360.169V38.816H362.857V44.96H362.089ZM365.929 45.344V43.424H364.009V39.2H364.777V42.656H366.697V44.576H369.769V43.424H367.849V39.584H366.697V41.12H365.929V38.816H368.617V42.656H370.537V45.344H365.929ZM390.889 49.184V44.576H393.576V46.496H396.649V39.584H395.113V38.816H397.417V47.264H392.809V45.344H391.657V48.416H397.033V49.184H390.889ZM379.369 47.264V42.656H381.289V40.736H383.977V42.656H387.433V43.424H383.209V41.504H382.057V43.424H380.137V46.496H381.289V44.96H382.057V47.264H379.369ZM398.569 46.88V42.656H400.489V41.504H398.953V40.736H401.257V43.424H399.337V46.88H398.569ZM394.729 44.96V43.04H395.497V44.96H394.729ZM365.929 48.8V47.264H364.009V44.96H364.777V46.496H366.697V48.8H365.929ZM377.449 46.88V44.96H378.217V46.88H377.449ZM368.233 47.264V46.496H370.153V47.264H368.233ZM391.273 51.104V50.336H393.193V51.104H391.273Z" fill="black" fill-opacity="0.2"/>
</g>
<defs>
<filter id="filter0_d_1_7" x="9.32349" y="7.45599" width="397.853" height="53.568" filterUnits="userSpaceOnUse" color-interpolation-filters="sRGB">
<feFlood flood-opacity="0" result="BackgroundImageFix"/>
<feColorMatrix in="SourceAlpha" type="matrix" values="0 0 0 0 0 0 0 0 0 0 0 0 0 0 0 0 0 0 127 0" result="hardAlpha"/>
<feOffset dy="4"/>
<feGaussianBlur stdDeviation="2"/>
<feComposite in2="hardAlpha" operator="out"/>
<feColorMatrix type="matrix" values="0 0 0 0 0 0 0 0 0 0 0 0 0 0 0 0 0 0 0.25 0"/>
<feBlend mode="normal" in2="BackgroundImageFix" result="effect1_dropShadow_1_7"/>
<feBlend mode="normal" in="SourceGraphic" in2="effect1_dropShadow_1_7" result="shape"/>
</filter>
</defs>
</svg>
